%TF.GenerationSoftware,KiCad,Pcbnew,10.0.3*%
%TF.CreationDate,2026-06-12T12:09:36+02:00*%
%TF.ProjectId,usb-c-splitter,7573622d-632d-4737-906c-69747465722e,rev?*%
%TF.SameCoordinates,Original*%
%TF.FileFunction,Copper,L2,Bot*%
%TF.FilePolarity,Positive*%
%FSLAX46Y46*%
G04 Gerber Fmt 4.6, Leading zero omitted, Abs format (unit mm)*
G04 Created by KiCad (PCBNEW 10.0.3) date 2026-06-12 12:09:36*
%MOMM*%
%LPD*%
G01*
G04 APERTURE LIST*
%TA.AperFunction,ComponentPad*%
%ADD10O,1.000000X2.100000*%
%TD*%
%TA.AperFunction,ComponentPad*%
%ADD11O,1.000000X1.800000*%
%TD*%
%TA.AperFunction,ViaPad*%
%ADD12C,0.600000*%
%TD*%
%TA.AperFunction,Conductor*%
%ADD13C,0.300000*%
%TD*%
G04 APERTURE END LIST*
D10*
%TO.P,Combined1,SH,SHIELD_SH*%
%TO.N,GND*%
X30680000Y-34895000D03*
D11*
X30680000Y-39075000D03*
D10*
X39320000Y-34895000D03*
D11*
X39320000Y-39075000D03*
%TD*%
D10*
%TO.P,Data1,SH,SHIELD_SH*%
%TO.N,GND*%
X29500000Y-26680000D03*
D11*
X29500000Y-22500000D03*
D10*
X20860000Y-26680000D03*
D11*
X20860000Y-22500000D03*
%TD*%
D10*
%TO.P,Power1,SH,SHIELD_SH*%
%TO.N,GND*%
X49140000Y-26680000D03*
D11*
X49140000Y-22500000D03*
D10*
X40500000Y-26680000D03*
D11*
X40500000Y-22500000D03*
%TD*%
D12*
%TO.N,GND*%
X42400000Y-35400000D03*
X41000000Y-33400000D03*
%TO.N,/CC2*%
X43170000Y-29000000D03*
X43000000Y-32400000D03*
%TO.N,/CC1*%
X45400000Y-28400000D03*
X35000000Y-32200000D03*
%TD*%
%TO.N,GND*%
D13*
X41000000Y-33400000D02*
X42400000Y-34800000D01*
X42400000Y-34800000D02*
X42400000Y-35400000D01*
%TO.N,/CC2*%
X43000000Y-32400000D02*
X43000000Y-29170000D01*
X43000000Y-29170000D02*
X43170000Y-29000000D01*
%TO.N,/CC1*%
X35000000Y-32200000D02*
X39400000Y-27800000D01*
X40852082Y-28080000D02*
X41132082Y-27800000D01*
X41132082Y-27800000D02*
X45000000Y-27800000D01*
X45400000Y-28200000D02*
X45400000Y-28400000D01*
X39400000Y-27800000D02*
X39867918Y-27800000D01*
X39867918Y-27800000D02*
X40147918Y-28080000D01*
X40147918Y-28080000D02*
X40852082Y-28080000D01*
X45000000Y-27800000D02*
X45400000Y-28200000D01*
%TD*%
%TA.AperFunction,Conductor*%
%TO.N,GND*%
G36*
X49842539Y-20520185D02*
G01*
X49888294Y-20572989D01*
X49899500Y-20624500D01*
X49899500Y-40875500D01*
X49879815Y-40942539D01*
X49827011Y-40988294D01*
X49775500Y-40999500D01*
X20224500Y-40999500D01*
X20157461Y-40979815D01*
X20111706Y-40927011D01*
X20100500Y-40875500D01*
X20100500Y-37878711D01*
X21649500Y-37878711D01*
X21649500Y-38121288D01*
X21681161Y-38361785D01*
X21743947Y-38596104D01*
X21836773Y-38820205D01*
X21836776Y-38820212D01*
X21958064Y-39030289D01*
X21958066Y-39030292D01*
X21958067Y-39030293D01*
X22105733Y-39222736D01*
X22105739Y-39222743D01*
X22277256Y-39394260D01*
X22277262Y-39394265D01*
X22469711Y-39541936D01*
X22679788Y-39663224D01*
X22903900Y-39756054D01*
X23138211Y-39818838D01*
X23318586Y-39842584D01*
X23378711Y-39850500D01*
X23378712Y-39850500D01*
X23621289Y-39850500D01*
X23669388Y-39844167D01*
X23861789Y-39818838D01*
X24096100Y-39756054D01*
X24320212Y-39663224D01*
X24530289Y-39541936D01*
X24722738Y-39394265D01*
X24894265Y-39222738D01*
X25041936Y-39030289D01*
X25163224Y-38820212D01*
X25256054Y-38596100D01*
X25318838Y-38361789D01*
X25350500Y-38121288D01*
X25350500Y-37878712D01*
X25350500Y-37878711D01*
X44649500Y-37878711D01*
X44649500Y-38121288D01*
X44681161Y-38361785D01*
X44743947Y-38596104D01*
X44836773Y-38820205D01*
X44836776Y-38820212D01*
X44958064Y-39030289D01*
X44958066Y-39030292D01*
X44958067Y-39030293D01*
X45105733Y-39222736D01*
X45105739Y-39222743D01*
X45277256Y-39394260D01*
X45277262Y-39394265D01*
X45469711Y-39541936D01*
X45679788Y-39663224D01*
X45903900Y-39756054D01*
X46138211Y-39818838D01*
X46318586Y-39842584D01*
X46378711Y-39850500D01*
X46378712Y-39850500D01*
X46621289Y-39850500D01*
X46669388Y-39844167D01*
X46861789Y-39818838D01*
X47096100Y-39756054D01*
X47320212Y-39663224D01*
X47530289Y-39541936D01*
X47722738Y-39394265D01*
X47894265Y-39222738D01*
X48041936Y-39030289D01*
X48163224Y-38820212D01*
X48256054Y-38596100D01*
X48318838Y-38361789D01*
X48350500Y-38121288D01*
X48350500Y-37878712D01*
X48318838Y-37638211D01*
X48256054Y-37403900D01*
X48163224Y-37179788D01*
X48041936Y-36969711D01*
X47894265Y-36777262D01*
X47894260Y-36777256D01*
X47722743Y-36605739D01*
X47722736Y-36605733D01*
X47530293Y-36458067D01*
X47530292Y-36458066D01*
X47530289Y-36458064D01*
X47320212Y-36336776D01*
X47320205Y-36336773D01*
X47096104Y-36243947D01*
X46861785Y-36181161D01*
X46621289Y-36149500D01*
X46621288Y-36149500D01*
X46378712Y-36149500D01*
X46378711Y-36149500D01*
X46138214Y-36181161D01*
X45903895Y-36243947D01*
X45679794Y-36336773D01*
X45679785Y-36336777D01*
X45469706Y-36458067D01*
X45277263Y-36605733D01*
X45277256Y-36605739D01*
X45105739Y-36777256D01*
X45105733Y-36777263D01*
X44958067Y-36969706D01*
X44836777Y-37179785D01*
X44836773Y-37179794D01*
X44743947Y-37403895D01*
X44681161Y-37638214D01*
X44649500Y-37878711D01*
X25350500Y-37878711D01*
X25318838Y-37638211D01*
X25256054Y-37403900D01*
X25163224Y-37179788D01*
X25041936Y-36969711D01*
X24894265Y-36777262D01*
X24894260Y-36777256D01*
X24722743Y-36605739D01*
X24722736Y-36605733D01*
X24530293Y-36458067D01*
X24530292Y-36458066D01*
X24530289Y-36458064D01*
X24320212Y-36336776D01*
X24320205Y-36336773D01*
X24096104Y-36243947D01*
X23861785Y-36181161D01*
X23621289Y-36149500D01*
X23621288Y-36149500D01*
X23378712Y-36149500D01*
X23378711Y-36149500D01*
X23138214Y-36181161D01*
X22903895Y-36243947D01*
X22679794Y-36336773D01*
X22679785Y-36336777D01*
X22469706Y-36458067D01*
X22277263Y-36605733D01*
X22277256Y-36605739D01*
X22105739Y-36777256D01*
X22105733Y-36777263D01*
X21958067Y-36969706D01*
X21836777Y-37179785D01*
X21836773Y-37179794D01*
X21743947Y-37403895D01*
X21681161Y-37638214D01*
X21649500Y-37878711D01*
X20100500Y-37878711D01*
X20100500Y-35319234D01*
X31534500Y-35319234D01*
X31534500Y-35470765D01*
X31573719Y-35617136D01*
X31611602Y-35682750D01*
X31649485Y-35748365D01*
X31756635Y-35855515D01*
X31887865Y-35931281D01*
X32034234Y-35970500D01*
X32034236Y-35970500D01*
X32185764Y-35970500D01*
X32185766Y-35970500D01*
X32332135Y-35931281D01*
X32463365Y-35855515D01*
X32570515Y-35748365D01*
X32646281Y-35617135D01*
X32685500Y-35470766D01*
X32685500Y-35319234D01*
X37314500Y-35319234D01*
X37314500Y-35470765D01*
X37353719Y-35617136D01*
X37391602Y-35682750D01*
X37429485Y-35748365D01*
X37536635Y-35855515D01*
X37667865Y-35931281D01*
X37814234Y-35970500D01*
X37814236Y-35970500D01*
X37965764Y-35970500D01*
X37965766Y-35970500D01*
X38112135Y-35931281D01*
X38243365Y-35855515D01*
X38350515Y-35748365D01*
X38426281Y-35617135D01*
X38465500Y-35470766D01*
X38465500Y-35319234D01*
X38426281Y-35172865D01*
X38350515Y-35041635D01*
X38243365Y-34934485D01*
X38177750Y-34896602D01*
X38112136Y-34858719D01*
X38038950Y-34839109D01*
X37965766Y-34819500D01*
X37814234Y-34819500D01*
X37667863Y-34858719D01*
X37536635Y-34934485D01*
X37536632Y-34934487D01*
X37429487Y-35041632D01*
X37429485Y-35041635D01*
X37353719Y-35172863D01*
X37314500Y-35319234D01*
X32685500Y-35319234D01*
X32646281Y-35172865D01*
X32570515Y-35041635D01*
X32463365Y-34934485D01*
X32397750Y-34896602D01*
X32332136Y-34858719D01*
X32258950Y-34839109D01*
X32185766Y-34819500D01*
X32034234Y-34819500D01*
X31887863Y-34858719D01*
X31756635Y-34934485D01*
X31756632Y-34934487D01*
X31649487Y-35041632D01*
X31649485Y-35041635D01*
X31573719Y-35172863D01*
X31534500Y-35319234D01*
X20100500Y-35319234D01*
X20100500Y-32121153D01*
X34199500Y-32121153D01*
X34199500Y-32278846D01*
X34230261Y-32433489D01*
X34230264Y-32433501D01*
X34290602Y-32579172D01*
X34290609Y-32579185D01*
X34378210Y-32710288D01*
X34378213Y-32710292D01*
X34489707Y-32821786D01*
X34489711Y-32821789D01*
X34620814Y-32909390D01*
X34620827Y-32909397D01*
X34766498Y-32969735D01*
X34766503Y-32969737D01*
X34921153Y-33000499D01*
X34921156Y-33000500D01*
X34921158Y-33000500D01*
X35078844Y-33000500D01*
X35078845Y-33000499D01*
X35233497Y-32969737D01*
X35379179Y-32909394D01*
X35510289Y-32821789D01*
X35621789Y-32710289D01*
X35709394Y-32579179D01*
X35769737Y-32433497D01*
X35783079Y-32366416D01*
X35815463Y-32304509D01*
X35816959Y-32302985D01*
X39546279Y-28573666D01*
X39607600Y-28540183D01*
X39677292Y-28545167D01*
X39721639Y-28573668D01*
X39733244Y-28585273D01*
X39733247Y-28585275D01*
X39733249Y-28585277D01*
X39839791Y-28656465D01*
X39958174Y-28705501D01*
X39958178Y-28705501D01*
X39958179Y-28705502D01*
X40083846Y-28730500D01*
X40083849Y-28730500D01*
X40916153Y-28730500D01*
X41000697Y-28713682D01*
X41041826Y-28705501D01*
X41160209Y-28656465D01*
X41266751Y-28585277D01*
X41365210Y-28486817D01*
X41426531Y-28453334D01*
X41452890Y-28450500D01*
X42345576Y-28450500D01*
X42412615Y-28470185D01*
X42458370Y-28522989D01*
X42468314Y-28592147D01*
X42460137Y-28621952D01*
X42400264Y-28766498D01*
X42400261Y-28766510D01*
X42369500Y-28921153D01*
X42369500Y-28993173D01*
X42367117Y-29017365D01*
X42349500Y-29105928D01*
X42349500Y-31895064D01*
X42329815Y-31962103D01*
X42328603Y-31963954D01*
X42290608Y-32020817D01*
X42290602Y-32020828D01*
X42230264Y-32166498D01*
X42230261Y-32166510D01*
X42199500Y-32321153D01*
X42199500Y-32478846D01*
X42230261Y-32633489D01*
X42230264Y-32633501D01*
X42290602Y-32779172D01*
X42290609Y-32779185D01*
X42378210Y-32910288D01*
X42378213Y-32910292D01*
X42489707Y-33021786D01*
X42489711Y-33021789D01*
X42620814Y-33109390D01*
X42620827Y-33109397D01*
X42766498Y-33169735D01*
X42766503Y-33169737D01*
X42921153Y-33200499D01*
X42921156Y-33200500D01*
X42921158Y-33200500D01*
X43078844Y-33200500D01*
X43078845Y-33200499D01*
X43233497Y-33169737D01*
X43379179Y-33109394D01*
X43510289Y-33021789D01*
X43621789Y-32910289D01*
X43709394Y-32779179D01*
X43769737Y-32633497D01*
X43800500Y-32478842D01*
X43800500Y-32321158D01*
X43800500Y-32321155D01*
X43800499Y-32321153D01*
X43796874Y-32302929D01*
X43769737Y-32166503D01*
X43709394Y-32020821D01*
X43671396Y-31963953D01*
X43650520Y-31897276D01*
X43650500Y-31895064D01*
X43650500Y-29702941D01*
X43670185Y-29635902D01*
X43686819Y-29615260D01*
X43791786Y-29510292D01*
X43791789Y-29510289D01*
X43879394Y-29379179D01*
X43939737Y-29233497D01*
X43970500Y-29078842D01*
X43970500Y-28921158D01*
X43970500Y-28921155D01*
X43970499Y-28921153D01*
X43968338Y-28910288D01*
X43939737Y-28766503D01*
X43914470Y-28705502D01*
X43879863Y-28621952D01*
X43872394Y-28552483D01*
X43903669Y-28490004D01*
X43963759Y-28454352D01*
X43994424Y-28450500D01*
X44492098Y-28450500D01*
X44559137Y-28470185D01*
X44604892Y-28522989D01*
X44613715Y-28550308D01*
X44630261Y-28633491D01*
X44630264Y-28633501D01*
X44690602Y-28779172D01*
X44690609Y-28779185D01*
X44778210Y-28910288D01*
X44778213Y-28910292D01*
X44889707Y-29021786D01*
X44889711Y-29021789D01*
X45020814Y-29109390D01*
X45020827Y-29109397D01*
X45166498Y-29169735D01*
X45166503Y-29169737D01*
X45321153Y-29200499D01*
X45321156Y-29200500D01*
X45321158Y-29200500D01*
X45478844Y-29200500D01*
X45478845Y-29200499D01*
X45633497Y-29169737D01*
X45779179Y-29109394D01*
X45910289Y-29021789D01*
X46021789Y-28910289D01*
X46109394Y-28779179D01*
X46169737Y-28633497D01*
X46200500Y-28478842D01*
X46200500Y-28321158D01*
X46200500Y-28321155D01*
X46200499Y-28321153D01*
X46169738Y-28166510D01*
X46169737Y-28166503D01*
X46169735Y-28166498D01*
X46109397Y-28020827D01*
X46109390Y-28020814D01*
X46021789Y-27889711D01*
X46021786Y-27889707D01*
X45910292Y-27778213D01*
X45910288Y-27778210D01*
X45883879Y-27760564D01*
X45865089Y-27745143D01*
X45414674Y-27294727D01*
X45414673Y-27294726D01*
X45414669Y-27294723D01*
X45308127Y-27223535D01*
X45189744Y-27174499D01*
X45189738Y-27174497D01*
X45064071Y-27149500D01*
X45064069Y-27149500D01*
X41068013Y-27149500D01*
X41068011Y-27149500D01*
X40942343Y-27174497D01*
X40942337Y-27174499D01*
X40823956Y-27223534D01*
X40717410Y-27294725D01*
X40668183Y-27343953D01*
X40618953Y-27393182D01*
X40592022Y-27407888D01*
X40566209Y-27424477D01*
X40560009Y-27425368D01*
X40557633Y-27426666D01*
X40531274Y-27429500D01*
X40468726Y-27429500D01*
X40401687Y-27409815D01*
X40381049Y-27393185D01*
X40282587Y-27294723D01*
X40176045Y-27223535D01*
X40057662Y-27174499D01*
X40057656Y-27174497D01*
X39931989Y-27149500D01*
X39931987Y-27149500D01*
X39335931Y-27149500D01*
X39335929Y-27149500D01*
X39210261Y-27174497D01*
X39210255Y-27174499D01*
X39091873Y-27223534D01*
X39091866Y-27223538D01*
X39049198Y-27252046D01*
X39049199Y-27252047D01*
X38985331Y-27294722D01*
X38985327Y-27294725D01*
X34897068Y-31382984D01*
X34835745Y-31416469D01*
X34833579Y-31416920D01*
X34766508Y-31430261D01*
X34766498Y-31430264D01*
X34620827Y-31490602D01*
X34620814Y-31490609D01*
X34489711Y-31578210D01*
X34489707Y-31578213D01*
X34378213Y-31689707D01*
X34378210Y-31689711D01*
X34290609Y-31820814D01*
X34290602Y-31820827D01*
X34230264Y-31966498D01*
X34230261Y-31966510D01*
X34199500Y-32121153D01*
X20100500Y-32121153D01*
X20100500Y-26104234D01*
X21714500Y-26104234D01*
X21714500Y-26255765D01*
X21753719Y-26402136D01*
X21791602Y-26467750D01*
X21829485Y-26533365D01*
X21936635Y-26640515D01*
X22067865Y-26716281D01*
X22214234Y-26755500D01*
X22214236Y-26755500D01*
X22365764Y-26755500D01*
X22365766Y-26755500D01*
X22512135Y-26716281D01*
X22643365Y-26640515D01*
X22750515Y-26533365D01*
X22826281Y-26402135D01*
X22865500Y-26255766D01*
X22865500Y-26104234D01*
X27494500Y-26104234D01*
X27494500Y-26255765D01*
X27533719Y-26402136D01*
X27571602Y-26467750D01*
X27609485Y-26533365D01*
X27716635Y-26640515D01*
X27847865Y-26716281D01*
X27994234Y-26755500D01*
X27994236Y-26755500D01*
X28145764Y-26755500D01*
X28145766Y-26755500D01*
X28292135Y-26716281D01*
X28423365Y-26640515D01*
X28530515Y-26533365D01*
X28606281Y-26402135D01*
X28645500Y-26255766D01*
X28645500Y-26104234D01*
X41354500Y-26104234D01*
X41354500Y-26255765D01*
X41393719Y-26402136D01*
X41431602Y-26467750D01*
X41469485Y-26533365D01*
X41576635Y-26640515D01*
X41707865Y-26716281D01*
X41854234Y-26755500D01*
X41854236Y-26755500D01*
X42005764Y-26755500D01*
X42005766Y-26755500D01*
X42152135Y-26716281D01*
X42283365Y-26640515D01*
X42390515Y-26533365D01*
X42466281Y-26402135D01*
X42505500Y-26255766D01*
X42505500Y-26104234D01*
X47134500Y-26104234D01*
X47134500Y-26255765D01*
X47173719Y-26402136D01*
X47211602Y-26467750D01*
X47249485Y-26533365D01*
X47356635Y-26640515D01*
X47487865Y-26716281D01*
X47634234Y-26755500D01*
X47634236Y-26755500D01*
X47785764Y-26755500D01*
X47785766Y-26755500D01*
X47932135Y-26716281D01*
X48063365Y-26640515D01*
X48170515Y-26533365D01*
X48246281Y-26402135D01*
X48285500Y-26255766D01*
X48285500Y-26104234D01*
X48246281Y-25957865D01*
X48170515Y-25826635D01*
X48063365Y-25719485D01*
X47997750Y-25681602D01*
X47932136Y-25643719D01*
X47858950Y-25624109D01*
X47785766Y-25604500D01*
X47634234Y-25604500D01*
X47487863Y-25643719D01*
X47356635Y-25719485D01*
X47356632Y-25719487D01*
X47249487Y-25826632D01*
X47249485Y-25826635D01*
X47173719Y-25957863D01*
X47134500Y-26104234D01*
X42505500Y-26104234D01*
X42466281Y-25957865D01*
X42390515Y-25826635D01*
X42283365Y-25719485D01*
X42217750Y-25681602D01*
X42152136Y-25643719D01*
X42078950Y-25624109D01*
X42005766Y-25604500D01*
X41854234Y-25604500D01*
X41707863Y-25643719D01*
X41576635Y-25719485D01*
X41576632Y-25719487D01*
X41469487Y-25826632D01*
X41469485Y-25826635D01*
X41393719Y-25957863D01*
X41354500Y-26104234D01*
X28645500Y-26104234D01*
X28606281Y-25957865D01*
X28530515Y-25826635D01*
X28423365Y-25719485D01*
X28357750Y-25681602D01*
X28292136Y-25643719D01*
X28218950Y-25624109D01*
X28145766Y-25604500D01*
X27994234Y-25604500D01*
X27847863Y-25643719D01*
X27716635Y-25719485D01*
X27716632Y-25719487D01*
X27609487Y-25826632D01*
X27609485Y-25826635D01*
X27533719Y-25957863D01*
X27494500Y-26104234D01*
X22865500Y-26104234D01*
X22826281Y-25957865D01*
X22750515Y-25826635D01*
X22643365Y-25719485D01*
X22577750Y-25681602D01*
X22512136Y-25643719D01*
X22438950Y-25624109D01*
X22365766Y-25604500D01*
X22214234Y-25604500D01*
X22067863Y-25643719D01*
X21936635Y-25719485D01*
X21936632Y-25719487D01*
X21829487Y-25826632D01*
X21829485Y-25826635D01*
X21753719Y-25957863D01*
X21714500Y-26104234D01*
X20100500Y-26104234D01*
X20100500Y-23378711D01*
X33149500Y-23378711D01*
X33149500Y-23621288D01*
X33181161Y-23861785D01*
X33243947Y-24096104D01*
X33336773Y-24320205D01*
X33336776Y-24320212D01*
X33458064Y-24530289D01*
X33458066Y-24530292D01*
X33458067Y-24530293D01*
X33605733Y-24722736D01*
X33605739Y-24722743D01*
X33777256Y-24894260D01*
X33777262Y-24894265D01*
X33969711Y-25041936D01*
X34179788Y-25163224D01*
X34403900Y-25256054D01*
X34638211Y-25318838D01*
X34818586Y-25342584D01*
X34878711Y-25350500D01*
X34878712Y-25350500D01*
X35121289Y-25350500D01*
X35169388Y-25344167D01*
X35361789Y-25318838D01*
X35596100Y-25256054D01*
X35820212Y-25163224D01*
X36030289Y-25041936D01*
X36222738Y-24894265D01*
X36394265Y-24722738D01*
X36541936Y-24530289D01*
X36663224Y-24320212D01*
X36756054Y-24096100D01*
X36818838Y-23861789D01*
X36850500Y-23621288D01*
X36850500Y-23378712D01*
X36818838Y-23138211D01*
X36756054Y-22903900D01*
X36663224Y-22679788D01*
X36541936Y-22469711D01*
X36394265Y-22277262D01*
X36394260Y-22277256D01*
X36222743Y-22105739D01*
X36222736Y-22105733D01*
X36030293Y-21958067D01*
X36030292Y-21958066D01*
X36030289Y-21958064D01*
X35820212Y-21836776D01*
X35820205Y-21836773D01*
X35596104Y-21743947D01*
X35361785Y-21681161D01*
X35121289Y-21649500D01*
X35121288Y-21649500D01*
X34878712Y-21649500D01*
X34878711Y-21649500D01*
X34638214Y-21681161D01*
X34403895Y-21743947D01*
X34179794Y-21836773D01*
X34179785Y-21836777D01*
X33969706Y-21958067D01*
X33777263Y-22105733D01*
X33777256Y-22105739D01*
X33605739Y-22277256D01*
X33605733Y-22277263D01*
X33458067Y-22469706D01*
X33336777Y-22679785D01*
X33336773Y-22679794D01*
X33243947Y-22903895D01*
X33181161Y-23138214D01*
X33149500Y-23378711D01*
X20100500Y-23378711D01*
X20100500Y-20624500D01*
X20120185Y-20557461D01*
X20172989Y-20511706D01*
X20224500Y-20500500D01*
X49775500Y-20500500D01*
X49842539Y-20520185D01*
G37*
%TD.AperFunction*%
%TD*%
M02*
