%TF.GenerationSoftware,KiCad,Pcbnew,10.0.3*%
%TF.CreationDate,2026-06-12T12:09:36+02:00*%
%TF.ProjectId,usb-c-splitter,7573622d-632d-4737-906c-69747465722e,rev?*%
%TF.SameCoordinates,Original*%
%TF.FileFunction,Copper,L1,Top*%
%TF.FilePolarity,Positive*%
%FSLAX46Y46*%
G04 Gerber Fmt 4.6, Leading zero omitted, Abs format (unit mm)*
G04 Created by KiCad (PCBNEW 10.0.3) date 2026-06-12 12:09:36*
%MOMM*%
%LPD*%
G01*
G04 APERTURE LIST*
G04 Aperture macros list*
%AMRoundRect*
0 Rectangle with rounded corners*
0 $1 Rounding radius*
0 $2 $3 $4 $5 $6 $7 $8 $9 X,Y pos of 4 corners*
0 Add a 4 corners polygon primitive as box body*
4,1,4,$2,$3,$4,$5,$6,$7,$8,$9,$2,$3,0*
0 Add four circle primitives for the rounded corners*
1,1,$1+$1,$2,$3*
1,1,$1+$1,$4,$5*
1,1,$1+$1,$6,$7*
1,1,$1+$1,$8,$9*
0 Add four rect primitives between the rounded corners*
20,1,$1+$1,$2,$3,$4,$5,0*
20,1,$1+$1,$4,$5,$6,$7,0*
20,1,$1+$1,$6,$7,$8,$9,0*
20,1,$1+$1,$8,$9,$2,$3,0*%
G04 Aperture macros list end*
%TA.AperFunction,SMDPad,CuDef*%
%ADD10RoundRect,0.150000X-0.150000X-0.425000X0.150000X-0.425000X0.150000X0.425000X-0.150000X0.425000X0*%
%TD*%
%TA.AperFunction,SMDPad,CuDef*%
%ADD11RoundRect,0.075000X-0.075000X-0.500000X0.075000X-0.500000X0.075000X0.500000X-0.075000X0.500000X0*%
%TD*%
%TA.AperFunction,ComponentPad*%
%ADD12O,1.000000X2.100000*%
%TD*%
%TA.AperFunction,ComponentPad*%
%ADD13O,1.000000X1.800000*%
%TD*%
%TA.AperFunction,SMDPad,CuDef*%
%ADD14RoundRect,0.250000X-0.350000X-0.450000X0.350000X-0.450000X0.350000X0.450000X-0.350000X0.450000X0*%
%TD*%
%TA.AperFunction,SMDPad,CuDef*%
%ADD15RoundRect,0.150000X0.150000X0.425000X-0.150000X0.425000X-0.150000X-0.425000X0.150000X-0.425000X0*%
%TD*%
%TA.AperFunction,SMDPad,CuDef*%
%ADD16RoundRect,0.075000X0.075000X0.500000X-0.075000X0.500000X-0.075000X-0.500000X0.075000X-0.500000X0*%
%TD*%
%TA.AperFunction,SMDPad,CuDef*%
%ADD17RoundRect,0.250000X0.350000X0.450000X-0.350000X0.450000X-0.350000X-0.450000X0.350000X-0.450000X0*%
%TD*%
%TA.AperFunction,ViaPad*%
%ADD18C,0.600000*%
%TD*%
%TA.AperFunction,Conductor*%
%ADD19C,0.600000*%
%TD*%
%TA.AperFunction,Conductor*%
%ADD20C,0.300000*%
%TD*%
%TA.AperFunction,Conductor*%
%ADD21C,0.200000*%
%TD*%
G04 APERTURE END LIST*
D10*
%TO.P,Combined1,A1,GND_A1*%
%TO.N,GND*%
X31800000Y-34320000D03*
%TO.P,Combined1,A4,VBUS_A4*%
%TO.N,/VBUS*%
X32600000Y-34320000D03*
D11*
%TO.P,Combined1,A5,CC1_A5*%
%TO.N,/CC1*%
X33750000Y-34320000D03*
%TO.P,Combined1,A6,D+_A6*%
%TO.N,/D+*%
X34750000Y-34320000D03*
%TO.P,Combined1,A7,D-_A7*%
%TO.N,/D-*%
X35250000Y-34320000D03*
%TO.P,Combined1,A8,SBU1_A8*%
%TO.N,unconnected-(Combined1-SBU1-PadA8)*%
X36250000Y-34320000D03*
D10*
%TO.P,Combined1,A9,VBUS_A9*%
%TO.N,/VBUS*%
X37400000Y-34320000D03*
%TO.P,Combined1,A12,GND_A12*%
%TO.N,GND*%
X38200000Y-34320000D03*
%TO.P,Combined1,B1,GND_B1*%
X38200000Y-34320000D03*
%TO.P,Combined1,B4,VBUS_B4*%
%TO.N,/VBUS*%
X37400000Y-34320000D03*
D11*
%TO.P,Combined1,B5,CC2_B5*%
%TO.N,/CC2*%
X36750000Y-34320000D03*
%TO.P,Combined1,B6,D+_B6*%
%TO.N,/D+*%
X35750000Y-34320000D03*
%TO.P,Combined1,B7,D-_B7*%
%TO.N,/D-*%
X34250000Y-34320000D03*
%TO.P,Combined1,B8,SBU2_B8*%
%TO.N,unconnected-(Combined1-SBU2-PadB8)*%
X33250000Y-34320000D03*
D10*
%TO.P,Combined1,B9,VBUS_B9*%
%TO.N,/VBUS*%
X32600000Y-34320000D03*
%TO.P,Combined1,B12,GND_B12*%
%TO.N,GND*%
X31800000Y-34320000D03*
D12*
%TO.P,Combined1,SH,SHIELD_SH*%
X30680000Y-34895000D03*
D13*
X30680000Y-39075000D03*
D12*
X39320000Y-34895000D03*
D13*
X39320000Y-39075000D03*
%TD*%
D14*
%TO.P,R2,1*%
%TO.N,Net-(Data1-CC1)*%
X27800000Y-31400000D03*
%TO.P,R2,2*%
%TO.N,GND*%
X29800000Y-31400000D03*
%TD*%
D15*
%TO.P,Data1,A1,GND_A1*%
%TO.N,GND*%
X28380000Y-27255000D03*
%TO.P,Data1,A4,VBUS_A4*%
%TO.N,/IGN*%
X27580000Y-27255000D03*
D16*
%TO.P,Data1,A5,CC1_A5*%
%TO.N,Net-(Data1-CC1)*%
X26430000Y-27255000D03*
%TO.P,Data1,A6,D+_A6*%
%TO.N,/D+*%
X25430000Y-27255000D03*
%TO.P,Data1,A7,D-_A7*%
%TO.N,/D-*%
X24930000Y-27255000D03*
%TO.P,Data1,A8,SBU1_A8*%
%TO.N,unconnected-(Data1-SBU1-PadA8)*%
X23930000Y-27255000D03*
D15*
%TO.P,Data1,A9,VBUS_A9*%
%TO.N,/IGN*%
X22780000Y-27255000D03*
%TO.P,Data1,A12,GND_A12*%
%TO.N,GND*%
X21980000Y-27255000D03*
%TO.P,Data1,B1,GND_B1*%
X21980000Y-27255000D03*
%TO.P,Data1,B4,VBUS_B4*%
%TO.N,/IGN*%
X22780000Y-27255000D03*
D16*
%TO.P,Data1,B5,CC2_B5*%
%TO.N,Net-(Data1-CC2)*%
X23430000Y-27255000D03*
%TO.P,Data1,B6,D+_B6*%
%TO.N,/D+*%
X24430000Y-27255000D03*
%TO.P,Data1,B7,D-_B7*%
%TO.N,/D-*%
X25930000Y-27255000D03*
%TO.P,Data1,B8,SBU2_B8*%
%TO.N,unconnected-(Data1-SBU2-PadB8)*%
X26930000Y-27255000D03*
D15*
%TO.P,Data1,B9,VBUS_B9*%
%TO.N,/IGN*%
X27580000Y-27255000D03*
%TO.P,Data1,B12,GND_B12*%
%TO.N,GND*%
X28380000Y-27255000D03*
D12*
%TO.P,Data1,SH,SHIELD_SH*%
X29500000Y-26680000D03*
D13*
X29500000Y-22500000D03*
D12*
X20860000Y-26680000D03*
D13*
X20860000Y-22500000D03*
%TD*%
D17*
%TO.P,R1,1*%
%TO.N,Net-(Data1-CC2)*%
X23000000Y-31500000D03*
%TO.P,R1,2*%
%TO.N,GND*%
X21000000Y-31500000D03*
%TD*%
D15*
%TO.P,Power1,A1,GND_A1*%
%TO.N,GND*%
X48020000Y-27255000D03*
%TO.P,Power1,A4,VBUS_A4*%
%TO.N,/VBUS*%
X47220000Y-27255000D03*
D16*
%TO.P,Power1,A5,CC1_A5*%
%TO.N,/CC1*%
X46070000Y-27255000D03*
%TO.P,Power1,A6,D+_A6*%
%TO.N,unconnected-(Power1-D+-PadA6)*%
X45070000Y-27255000D03*
%TO.P,Power1,A7,D-_A7*%
%TO.N,unconnected-(Power1-D--PadA7)*%
X44570000Y-27255000D03*
%TO.P,Power1,A8,SBU1_A8*%
%TO.N,unconnected-(Power1-SBU1-PadA8)*%
X43570000Y-27255000D03*
D15*
%TO.P,Power1,A9,VBUS_A9*%
%TO.N,/VBUS*%
X42420000Y-27255000D03*
%TO.P,Power1,A12,GND_A12*%
%TO.N,GND*%
X41620000Y-27255000D03*
%TO.P,Power1,B1,GND_B1*%
X41620000Y-27255000D03*
%TO.P,Power1,B4,VBUS_B4*%
%TO.N,/VBUS*%
X42420000Y-27255000D03*
D16*
%TO.P,Power1,B5,CC2_B5*%
%TO.N,/CC2*%
X43070000Y-27255000D03*
%TO.P,Power1,B6,D+_B6*%
%TO.N,unconnected-(Power1-D+-PadB6)*%
X44070000Y-27255000D03*
%TO.P,Power1,B7,D-_B7*%
%TO.N,unconnected-(Power1-D--PadB7)*%
X45570000Y-27255000D03*
%TO.P,Power1,B8,SBU2_B8*%
%TO.N,unconnected-(Power1-SBU2-PadB8)*%
X46570000Y-27255000D03*
D15*
%TO.P,Power1,B9,VBUS_B9*%
%TO.N,/VBUS*%
X47220000Y-27255000D03*
%TO.P,Power1,B12,GND_B12*%
%TO.N,GND*%
X48020000Y-27255000D03*
D12*
%TO.P,Power1,SH,SHIELD_SH*%
X49140000Y-26680000D03*
D13*
X49140000Y-22500000D03*
D12*
X40500000Y-26680000D03*
D13*
X40500000Y-22500000D03*
%TD*%
D18*
%TO.N,GND*%
X42400000Y-35400000D03*
X41000000Y-33400000D03*
%TO.N,/CC2*%
X43170000Y-29000000D03*
X43000000Y-32400000D03*
%TO.N,/CC1*%
X45400000Y-28400000D03*
X35000000Y-32200000D03*
%TD*%
%TO.N,/VBUS*%
D19*
X47220000Y-27255000D02*
X47220000Y-28180000D01*
X47220000Y-28180000D02*
X45800000Y-29600000D01*
X45800000Y-29600000D02*
X45800000Y-29690000D01*
X42420000Y-27255000D02*
X42420000Y-27980000D01*
X42420000Y-27980000D02*
X41600000Y-28800000D01*
X37400000Y-34320000D02*
X37400000Y-32600000D01*
X32600000Y-34320000D02*
X32600000Y-33400000D01*
X32600000Y-33400000D02*
X32400000Y-33200000D01*
%TO.N,GND*%
D20*
X28380000Y-28180000D02*
X29800000Y-29600000D01*
X39795000Y-34895000D02*
X40400000Y-34290000D01*
X21000000Y-31500000D02*
X21000000Y-28235000D01*
X48565000Y-27255000D02*
X49140000Y-26680000D01*
X38775000Y-34895000D02*
X38200000Y-34320000D01*
X39320000Y-34895000D02*
X39795000Y-34895000D01*
X28925000Y-27255000D02*
X29500000Y-26680000D01*
X31255000Y-34320000D02*
X30680000Y-34895000D01*
X31800000Y-34320000D02*
X31255000Y-34320000D01*
X28380000Y-27255000D02*
X28925000Y-27255000D01*
X29800000Y-29600000D02*
X29800000Y-31400000D01*
X48020000Y-27255000D02*
X48020000Y-28670000D01*
X28380000Y-27255000D02*
X28380000Y-28180000D01*
X40500000Y-26680000D02*
X41045000Y-26680000D01*
X48020000Y-27255000D02*
X48565000Y-27255000D01*
X41045000Y-26680000D02*
X41620000Y-27255000D01*
X39320000Y-34895000D02*
X38775000Y-34895000D01*
X48020000Y-28670000D02*
X48000000Y-28690000D01*
X21000000Y-28235000D02*
X21980000Y-27255000D01*
%TO.N,/CC2*%
X39683541Y-36400000D02*
X40170000Y-35913541D01*
X37445000Y-36245000D02*
X38917918Y-36245000D01*
X38917918Y-36245000D02*
X39072918Y-36400000D01*
D21*
X43070000Y-28900000D02*
X43070000Y-27255000D01*
D20*
X43000000Y-32896371D02*
X43000000Y-32400000D01*
X40170000Y-35726371D02*
X43000000Y-32896371D01*
X40170000Y-35913541D02*
X40170000Y-35726371D01*
X36750000Y-34320000D02*
X36750000Y-35550000D01*
X39072918Y-36400000D02*
X39683541Y-36400000D01*
D21*
X43170000Y-29000000D02*
X43070000Y-28900000D01*
D20*
X36750000Y-35550000D02*
X37445000Y-36245000D01*
%TO.N,/D+*%
X24430000Y-27255000D02*
X24430000Y-27933120D01*
X34898120Y-35850000D02*
X35750000Y-34998120D01*
X29400000Y-37400000D02*
X33200000Y-37400000D01*
X33200000Y-37400000D02*
X34750000Y-35850000D01*
X25230000Y-28400000D02*
X25430000Y-28200000D01*
X25430000Y-27255000D02*
X25430000Y-28200000D01*
X25430000Y-33430000D02*
X29400000Y-37400000D01*
X25430000Y-28200000D02*
X25430000Y-33430000D01*
X34750000Y-35850000D02*
X34750000Y-34927410D01*
X34750000Y-35850000D02*
X34898120Y-35850000D01*
X24430000Y-27933120D02*
X24676880Y-28180000D01*
X24967590Y-28400000D02*
X25230000Y-28400000D01*
X35750000Y-34998120D02*
X35750000Y-34320000D01*
X24747590Y-28180000D02*
X24967590Y-28400000D01*
X24676880Y-28180000D02*
X24747590Y-28180000D01*
X34750000Y-34927410D02*
X34750000Y-34320000D01*
%TO.N,/CC1*%
X33750000Y-34320000D02*
X33750000Y-33050000D01*
X46000000Y-28400000D02*
X46070000Y-28330000D01*
X46070000Y-28330000D02*
X46070000Y-27255000D01*
X45400000Y-28400000D02*
X46000000Y-28400000D01*
X34600000Y-32200000D02*
X35000000Y-32200000D01*
X33750000Y-33050000D02*
X34600000Y-32200000D01*
%TO.N,/D-*%
X34250000Y-34320000D02*
X34250000Y-35642894D01*
X34307106Y-33200000D02*
X34250000Y-33257106D01*
X29607106Y-36900000D02*
X25930000Y-33222894D01*
X25430000Y-26076880D02*
X25930000Y-26576880D01*
X35200000Y-33200000D02*
X34307106Y-33200000D01*
X25930000Y-33222894D02*
X25930000Y-27255000D01*
X34250000Y-35642894D02*
X32992894Y-36900000D01*
X34250000Y-33257106D02*
X34250000Y-34320000D01*
X24930000Y-26576880D02*
X25430000Y-26076880D01*
X35250000Y-34320000D02*
X35250000Y-33250000D01*
X32992894Y-36900000D02*
X29607106Y-36900000D01*
X35250000Y-33250000D02*
X35200000Y-33200000D01*
X25930000Y-26576880D02*
X25930000Y-27255000D01*
X24930000Y-27255000D02*
X24930000Y-26576880D01*
%TO.N,Net-(Data1-CC2)*%
X23430000Y-31070000D02*
X23430000Y-27255000D01*
D21*
X23000000Y-31500000D02*
X23430000Y-31070000D01*
%TO.N,Net-(Data1-CC1)*%
D20*
X26430000Y-27255000D02*
X26430000Y-30030000D01*
X26430000Y-30030000D02*
X27800000Y-31400000D01*
%TD*%
%TA.AperFunction,Conductor*%
%TO.N,GND*%
G36*
X48149566Y-27272059D02*
G01*
X48172159Y-27270436D01*
X48187867Y-27279006D01*
X48201606Y-27281498D01*
X48214529Y-27293552D01*
X48233494Y-27303899D01*
X48241681Y-27318878D01*
X48252700Y-27329156D01*
X48257397Y-27347632D01*
X48266996Y-27365193D01*
X48267153Y-27365913D01*
X48270000Y-27392331D01*
X48270000Y-28327295D01*
X48270001Y-28327295D01*
X48270003Y-28327295D01*
X48270003Y-28327294D01*
X48272486Y-28327100D01*
X48430198Y-28281281D01*
X48571550Y-28197686D01*
X48571553Y-28197683D01*
X48585747Y-28183488D01*
X48585753Y-28183485D01*
X48613993Y-28162345D01*
X48627721Y-28154849D01*
X48645141Y-28151060D01*
X48647070Y-28150007D01*
X48649261Y-28150163D01*
X48695984Y-28140000D01*
X48699098Y-28140222D01*
X48709568Y-28140971D01*
X48748173Y-28150093D01*
X48848306Y-28191568D01*
X48848310Y-28191570D01*
X48890000Y-28199862D01*
X48890000Y-27635195D01*
X48909685Y-27568156D01*
X48962489Y-27522401D01*
X49031647Y-27512457D01*
X49046073Y-27515415D01*
X49100504Y-27530000D01*
X49179493Y-27530000D01*
X49179496Y-27530000D01*
X49233910Y-27515420D01*
X49303756Y-27517083D01*
X49361619Y-27556245D01*
X49389123Y-27620473D01*
X49390000Y-27635195D01*
X49390000Y-28199861D01*
X49390000Y-28199862D01*
X49431690Y-28191569D01*
X49431692Y-28191569D01*
X49613671Y-28116192D01*
X49613678Y-28116188D01*
X49691784Y-28063998D01*
X49723614Y-28048769D01*
X49736616Y-28044697D01*
X49806471Y-28043448D01*
X49865916Y-28080164D01*
X49894597Y-28135588D01*
X49896425Y-28143643D01*
X49899500Y-28171086D01*
X49899500Y-40857670D01*
X49894475Y-40892614D01*
X49890070Y-40907612D01*
X49880439Y-40922601D01*
X49875432Y-40939675D01*
X49852327Y-40966355D01*
X49850958Y-40967542D01*
X49796097Y-40995018D01*
X49788539Y-40996663D01*
X49762168Y-40999500D01*
X20242330Y-40999500D01*
X20207389Y-40994475D01*
X20192390Y-40990070D01*
X20177402Y-40980440D01*
X20160324Y-40975432D01*
X20133644Y-40952327D01*
X20132457Y-40950958D01*
X20104977Y-40896083D01*
X20103332Y-40888521D01*
X20100500Y-40862168D01*
X20100500Y-37878710D01*
X21649500Y-37878710D01*
X21649500Y-38121288D01*
X21670989Y-38284524D01*
X21681161Y-38361785D01*
X21688163Y-38387916D01*
X21743947Y-38596104D01*
X21836772Y-38820203D01*
X21836773Y-38820207D01*
X21836780Y-38820220D01*
X21958060Y-39030283D01*
X21958062Y-39030286D01*
X21958281Y-39030615D01*
X21959284Y-39031879D01*
X22105726Y-39222728D01*
X22105730Y-39222733D01*
X22105733Y-39222736D01*
X22105739Y-39222743D01*
X22105747Y-39222751D01*
X22277242Y-39394247D01*
X22277256Y-39394260D01*
X22277262Y-39394265D01*
X22469711Y-39541936D01*
X22679788Y-39663224D01*
X22903900Y-39756054D01*
X23138211Y-39818838D01*
X23318586Y-39842584D01*
X23378710Y-39850500D01*
X23378711Y-39850500D01*
X23378712Y-39850500D01*
X23621283Y-39850500D01*
X23621289Y-39850500D01*
X23669388Y-39844167D01*
X23861789Y-39818838D01*
X24096100Y-39756054D01*
X24320212Y-39663224D01*
X24530289Y-39541936D01*
X24722738Y-39394265D01*
X24894265Y-39222738D01*
X24903664Y-39210487D01*
X24913131Y-39198152D01*
X24960338Y-39136629D01*
X25041936Y-39030289D01*
X25163224Y-38820212D01*
X25256054Y-38596100D01*
X25318838Y-38361789D01*
X25350500Y-38121288D01*
X25350500Y-37878712D01*
X25318838Y-37638211D01*
X25256054Y-37403900D01*
X25163224Y-37179788D01*
X25041936Y-36969711D01*
X24894265Y-36777262D01*
X24894260Y-36777256D01*
X24894259Y-36777255D01*
X24894247Y-36777242D01*
X24722751Y-36605747D01*
X24722743Y-36605739D01*
X24722736Y-36605733D01*
X24722733Y-36605730D01*
X24722728Y-36605726D01*
X24538037Y-36464009D01*
X24538036Y-36464008D01*
X24530293Y-36458067D01*
X24530292Y-36458066D01*
X24530289Y-36458064D01*
X24352257Y-36355277D01*
X24320214Y-36336777D01*
X24320208Y-36336774D01*
X24096104Y-36243947D01*
X23861781Y-36181160D01*
X23621290Y-36149500D01*
X23621289Y-36149500D01*
X23621288Y-36149500D01*
X23378712Y-36149500D01*
X23378711Y-36149500D01*
X23378710Y-36149500D01*
X23138217Y-36181160D01*
X22903894Y-36243947D01*
X22679790Y-36336774D01*
X22679782Y-36336778D01*
X22469706Y-36458067D01*
X22469697Y-36458073D01*
X22277270Y-36605726D01*
X22277255Y-36605740D01*
X22277247Y-36605747D01*
X22105747Y-36777247D01*
X22105740Y-36777255D01*
X22105726Y-36777270D01*
X21958073Y-36969697D01*
X21958067Y-36969706D01*
X21836778Y-37179782D01*
X21836774Y-37179790D01*
X21743947Y-37403894D01*
X21681160Y-37638217D01*
X21649500Y-37878710D01*
X20100500Y-37878710D01*
X20100500Y-32732263D01*
X20105522Y-32697330D01*
X20106286Y-32694728D01*
X20109433Y-32684011D01*
X20147206Y-32625234D01*
X20210758Y-32596209D01*
X20211460Y-32596108D01*
X20271319Y-32602270D01*
X20277614Y-32604552D01*
X20300444Y-32615587D01*
X20330869Y-32634353D01*
X20330880Y-32634358D01*
X20497299Y-32689504D01*
X20497300Y-32689504D01*
X20497302Y-32689505D01*
X20497309Y-32689506D01*
X20600019Y-32699999D01*
X20749999Y-32699999D01*
X20750000Y-32699998D01*
X20750000Y-30300000D01*
X20600025Y-30300000D01*
X20600009Y-30300001D01*
X20497304Y-30310493D01*
X20497303Y-30310493D01*
X20497302Y-30310494D01*
X20330880Y-30365641D01*
X20330878Y-30365642D01*
X20330861Y-30365650D01*
X20330857Y-30365652D01*
X20304767Y-30381744D01*
X20304767Y-30381745D01*
X20272396Y-30395810D01*
X20259012Y-30399472D01*
X20189154Y-30398178D01*
X20131088Y-30359322D01*
X20130643Y-30358789D01*
X20104452Y-30304579D01*
X20103093Y-30298038D01*
X20100500Y-30272814D01*
X20100500Y-28175025D01*
X20105523Y-28140091D01*
X20109360Y-28127023D01*
X20147134Y-28068245D01*
X20210689Y-28039219D01*
X20272701Y-28046165D01*
X20280422Y-28049124D01*
X20304938Y-28061809D01*
X20349908Y-28091857D01*
X20386324Y-28116190D01*
X20386337Y-28116196D01*
X20568302Y-28191567D01*
X20568310Y-28191570D01*
X20610000Y-28199862D01*
X20610000Y-27635195D01*
X20629685Y-27568156D01*
X20682489Y-27522401D01*
X20751647Y-27512457D01*
X20766073Y-27515415D01*
X20820504Y-27530000D01*
X20899493Y-27530000D01*
X20899496Y-27530000D01*
X20953910Y-27515420D01*
X21023756Y-27517083D01*
X21081619Y-27556245D01*
X21109123Y-27620473D01*
X21110000Y-27635195D01*
X21110000Y-28199861D01*
X21110000Y-28199862D01*
X21151689Y-28191570D01*
X21250047Y-28150828D01*
X21284238Y-28142102D01*
X21299781Y-28140431D01*
X21368537Y-28152834D01*
X21368541Y-28152836D01*
X21368542Y-28152837D01*
X21380718Y-28158932D01*
X21412894Y-28182134D01*
X21428438Y-28197678D01*
X21428447Y-28197685D01*
X21569801Y-28281281D01*
X21634408Y-28300050D01*
X21669660Y-28322563D01*
X21727509Y-28327098D01*
X21727514Y-28327100D01*
X21727511Y-28327100D01*
X21729998Y-28327295D01*
X21730000Y-28327295D01*
X21730000Y-28327294D01*
X21730000Y-27396824D01*
X21730482Y-27393855D01*
X21730083Y-27392284D01*
X21735022Y-27361893D01*
X21736305Y-27357523D01*
X21736385Y-27357546D01*
X21737882Y-27353064D01*
X21748337Y-27338034D01*
X21756050Y-27317335D01*
X21770016Y-27306872D01*
X21777783Y-27295708D01*
X21793694Y-27289134D01*
X21811969Y-27275444D01*
X21829960Y-27274151D01*
X21842358Y-27269029D01*
X21859066Y-27272059D01*
X21881659Y-27270436D01*
X21897367Y-27279006D01*
X21911106Y-27281498D01*
X21924029Y-27293552D01*
X21942994Y-27303899D01*
X21951181Y-27318878D01*
X21962200Y-27329156D01*
X21966897Y-27347632D01*
X21976496Y-27365193D01*
X21976653Y-27365913D01*
X21979500Y-27392331D01*
X21979500Y-27745708D01*
X21982401Y-27782570D01*
X21982401Y-27782572D01*
X21982402Y-27782573D01*
X21982403Y-27782579D01*
X22028252Y-27940386D01*
X22028256Y-27940399D01*
X22081505Y-28030439D01*
X22094079Y-28051700D01*
X22111919Y-28081865D01*
X22181075Y-28151021D01*
X22202224Y-28179272D01*
X22204953Y-28184269D01*
X22212276Y-28197681D01*
X22214831Y-28202359D01*
X22230000Y-28261788D01*
X22230000Y-28327295D01*
X22230001Y-28327295D01*
X22230003Y-28327294D01*
X22230018Y-28327294D01*
X22231038Y-28327213D01*
X22232490Y-28327100D01*
X22327559Y-28299478D01*
X22362155Y-28294555D01*
X22396050Y-28294555D01*
X22430645Y-28299479D01*
X22527426Y-28327597D01*
X22527429Y-28327597D01*
X22527431Y-28327598D01*
X22564306Y-28330500D01*
X22637671Y-28330500D01*
X22672606Y-28335523D01*
X22687604Y-28339927D01*
X22746355Y-28377672D01*
X22746379Y-28377700D01*
X22746382Y-28377702D01*
X22746383Y-28377704D01*
X22747542Y-28379041D01*
X22775018Y-28433902D01*
X22776663Y-28441460D01*
X22779500Y-28467831D01*
X22779500Y-30157670D01*
X22779499Y-30157676D01*
X22779500Y-30157679D01*
X22774475Y-30192614D01*
X22770070Y-30207612D01*
X22732327Y-30266355D01*
X22732292Y-30266385D01*
X22732291Y-30266387D01*
X22732289Y-30266387D01*
X22730958Y-30267542D01*
X22676101Y-30295018D01*
X22671285Y-30296066D01*
X22668540Y-30296663D01*
X22642169Y-30299500D01*
X22599991Y-30299500D01*
X22599967Y-30299502D01*
X22552828Y-30304317D01*
X22497203Y-30310000D01*
X22497201Y-30310000D01*
X22497197Y-30310001D01*
X22497193Y-30310001D01*
X22497032Y-30310056D01*
X22330666Y-30365185D01*
X22330664Y-30365186D01*
X22181347Y-30457285D01*
X22099934Y-30538698D01*
X22099931Y-30538699D01*
X22099931Y-30538701D01*
X22071676Y-30559850D01*
X22057956Y-30567341D01*
X21989703Y-30582192D01*
X21989683Y-30582190D01*
X21989682Y-30582191D01*
X21989680Y-30582190D01*
X21987896Y-30582063D01*
X21929690Y-30562695D01*
X21923175Y-30558508D01*
X21902539Y-30541878D01*
X21818346Y-30457685D01*
X21818345Y-30457684D01*
X21669124Y-30365643D01*
X21669119Y-30365641D01*
X21650047Y-30359321D01*
X21502699Y-30310494D01*
X21502694Y-30310493D01*
X21399991Y-30300000D01*
X21399986Y-30300000D01*
X21250000Y-30300000D01*
X21250000Y-32699999D01*
X21399960Y-32699999D01*
X21399972Y-32699999D01*
X21399986Y-32699998D01*
X21502697Y-32689505D01*
X21669119Y-32634358D01*
X21669124Y-32634356D01*
X21818342Y-32542317D01*
X21899362Y-32461296D01*
X21927609Y-32440151D01*
X21941333Y-32432657D01*
X22009591Y-32417806D01*
X22011401Y-32417935D01*
X22069601Y-32437303D01*
X22076114Y-32441489D01*
X22096754Y-32458122D01*
X22181344Y-32542712D01*
X22330666Y-32634814D01*
X22497203Y-32689999D01*
X22599991Y-32700500D01*
X23400008Y-32700499D01*
X23400016Y-32700498D01*
X23400019Y-32700498D01*
X23400023Y-32700497D01*
X23400323Y-32700478D01*
X23401361Y-32700360D01*
X23456503Y-32694728D01*
X23502797Y-32689999D01*
X23669334Y-32634814D01*
X23818656Y-32542712D01*
X23942712Y-32418656D01*
X24034814Y-32269334D01*
X24089999Y-32102797D01*
X24100500Y-32000009D01*
X24100499Y-30999992D01*
X24089999Y-30897203D01*
X24089922Y-30896973D01*
X24085209Y-30877712D01*
X24082083Y-30858336D01*
X24080500Y-30838586D01*
X24080500Y-28813674D01*
X24082629Y-28798863D01*
X24082337Y-28798840D01*
X24082752Y-28793676D01*
X24083456Y-28790807D01*
X24083189Y-28789242D01*
X24084826Y-28783576D01*
X24085522Y-28778741D01*
X24086961Y-28773840D01*
X24087581Y-28774022D01*
X24091533Y-28757943D01*
X24091242Y-28757832D01*
X24091957Y-28755964D01*
X24092049Y-28755842D01*
X24092226Y-28755124D01*
X24093636Y-28751805D01*
X24094215Y-28751098D01*
X24094521Y-28750043D01*
X24095216Y-28748592D01*
X24095974Y-28748955D01*
X24114432Y-28726469D01*
X24134306Y-28700390D01*
X24136491Y-28699596D01*
X24137966Y-28697800D01*
X24169159Y-28687729D01*
X24192285Y-28679328D01*
X24192013Y-28677442D01*
X24192656Y-28677349D01*
X24196301Y-28677870D01*
X24199977Y-28676535D01*
X24200025Y-28676532D01*
X24202024Y-28676407D01*
X24202067Y-28677105D01*
X24204457Y-28676334D01*
X24226607Y-28682201D01*
X24261823Y-28687234D01*
X24263837Y-28688175D01*
X24265394Y-28688919D01*
X24280747Y-28697662D01*
X24315912Y-28721158D01*
X24368753Y-28756465D01*
X24368755Y-28756466D01*
X24368759Y-28756468D01*
X24395032Y-28767350D01*
X24416470Y-28778808D01*
X24436396Y-28792122D01*
X24455187Y-28807544D01*
X24552915Y-28905272D01*
X24552922Y-28905278D01*
X24622577Y-28951820D01*
X24622585Y-28951824D01*
X24628088Y-28955501D01*
X24659463Y-28976465D01*
X24696327Y-28991734D01*
X24702070Y-28994857D01*
X24708235Y-29000999D01*
X24728988Y-29014607D01*
X24736313Y-29021682D01*
X24735552Y-29022469D01*
X24745264Y-29037893D01*
X24751566Y-29044172D01*
X24752821Y-29049894D01*
X24768148Y-29074234D01*
X24769194Y-29073887D01*
X24770072Y-29076527D01*
X24770074Y-29076532D01*
X24773153Y-29085784D01*
X24779500Y-29124945D01*
X24779500Y-33449702D01*
X24774237Y-33467622D01*
X24804494Y-33619726D01*
X24804495Y-33619732D01*
X24804502Y-33619753D01*
X24853533Y-33738123D01*
X24924729Y-33844677D01*
X28985320Y-37905268D01*
X28985327Y-37905274D01*
X28985330Y-37905276D01*
X28985331Y-37905277D01*
X29091873Y-37976465D01*
X29210256Y-38025501D01*
X29335927Y-38050500D01*
X29335928Y-38050500D01*
X29652874Y-38050500D01*
X29687612Y-38055494D01*
X29687806Y-38055521D01*
X29701125Y-38059432D01*
X29759903Y-38097206D01*
X29788929Y-38160761D01*
X29788930Y-38160771D01*
X29789675Y-38165955D01*
X29781497Y-38231046D01*
X29718430Y-38383304D01*
X29718421Y-38383343D01*
X29680000Y-38576500D01*
X29680000Y-38576504D01*
X29680000Y-38825000D01*
X30256000Y-38825000D01*
X30323039Y-38844685D01*
X30368794Y-38897489D01*
X30380000Y-38949000D01*
X30380000Y-39201000D01*
X30360315Y-39268039D01*
X30307511Y-39313794D01*
X30256000Y-39325000D01*
X29680000Y-39325000D01*
X29680000Y-39573498D01*
X29718421Y-39766655D01*
X29718430Y-39766694D01*
X29793803Y-39948664D01*
X29793808Y-39948673D01*
X29793818Y-39948690D01*
X29903249Y-40112464D01*
X29903250Y-40112465D01*
X29903255Y-40112471D01*
X30042527Y-40251743D01*
X30042533Y-40251748D01*
X30042537Y-40251751D01*
X30206315Y-40361185D01*
X30206328Y-40361192D01*
X30286803Y-40394525D01*
X30388302Y-40436567D01*
X30388310Y-40436570D01*
X30430000Y-40444862D01*
X30430000Y-39880195D01*
X30449685Y-39813156D01*
X30502489Y-39767401D01*
X30571647Y-39757457D01*
X30586073Y-39760415D01*
X30640504Y-39775000D01*
X30719493Y-39775000D01*
X30719496Y-39775000D01*
X30773910Y-39760420D01*
X30843756Y-39762083D01*
X30901619Y-39801245D01*
X30929123Y-39865473D01*
X30930000Y-39880195D01*
X30930000Y-40444861D01*
X30930000Y-40444862D01*
X30971690Y-40436569D01*
X30971692Y-40436569D01*
X31153671Y-40361192D01*
X31153684Y-40361185D01*
X31317462Y-40251751D01*
X31317466Y-40251748D01*
X31456748Y-40112466D01*
X31456751Y-40112462D01*
X31566185Y-39948684D01*
X31566192Y-39948671D01*
X31641569Y-39766693D01*
X31641572Y-39766681D01*
X31678480Y-39581130D01*
X31679203Y-39578401D01*
X31680000Y-39573493D01*
X31680000Y-39325000D01*
X31104000Y-39325000D01*
X31036961Y-39305315D01*
X30991206Y-39252511D01*
X30980000Y-39201000D01*
X30980000Y-38949000D01*
X30999685Y-38881961D01*
X31052489Y-38836206D01*
X31104000Y-38825000D01*
X31680000Y-38825000D01*
X31680000Y-38579121D01*
X31680000Y-38576508D01*
X31679999Y-38576504D01*
X31679998Y-38576500D01*
X38320000Y-38576500D01*
X38320000Y-38576504D01*
X38320000Y-38825000D01*
X38896000Y-38825000D01*
X38963039Y-38844685D01*
X39008794Y-38897489D01*
X39020000Y-38949000D01*
X39020000Y-39201000D01*
X39000315Y-39268039D01*
X38947511Y-39313794D01*
X38896000Y-39325000D01*
X38320000Y-39325000D01*
X38320000Y-39573498D01*
X38358421Y-39766655D01*
X38358430Y-39766694D01*
X38433803Y-39948664D01*
X38433808Y-39948673D01*
X38433818Y-39948690D01*
X38543249Y-40112464D01*
X38543250Y-40112465D01*
X38543255Y-40112471D01*
X38682527Y-40251743D01*
X38682533Y-40251748D01*
X38682537Y-40251751D01*
X38846315Y-40361185D01*
X38846328Y-40361192D01*
X38926803Y-40394525D01*
X39028302Y-40436567D01*
X39028310Y-40436570D01*
X39070000Y-40444862D01*
X39070000Y-39880195D01*
X39089685Y-39813156D01*
X39142489Y-39767401D01*
X39211647Y-39757457D01*
X39226073Y-39760415D01*
X39280504Y-39775000D01*
X39359493Y-39775000D01*
X39359496Y-39775000D01*
X39413910Y-39760420D01*
X39483756Y-39762083D01*
X39541619Y-39801245D01*
X39569123Y-39865473D01*
X39570000Y-39880195D01*
X39570000Y-40444861D01*
X39570000Y-40444862D01*
X39611690Y-40436569D01*
X39611692Y-40436569D01*
X39793671Y-40361192D01*
X39793684Y-40361185D01*
X39957462Y-40251751D01*
X39957466Y-40251748D01*
X40096748Y-40112466D01*
X40096751Y-40112462D01*
X40206185Y-39948684D01*
X40206192Y-39948671D01*
X40281569Y-39766693D01*
X40281572Y-39766681D01*
X40318480Y-39581130D01*
X40319203Y-39578401D01*
X40320000Y-39573493D01*
X40320000Y-39325000D01*
X39744000Y-39325000D01*
X39676961Y-39305315D01*
X39631206Y-39252511D01*
X39620000Y-39201000D01*
X39620000Y-38949000D01*
X39639685Y-38881961D01*
X39692489Y-38836206D01*
X39744000Y-38825000D01*
X40320000Y-38825000D01*
X40320000Y-38576506D01*
X40319909Y-38575768D01*
X40319408Y-38573533D01*
X40281577Y-38383343D01*
X40281576Y-38383342D01*
X40281572Y-38383318D01*
X40281569Y-38383306D01*
X40240653Y-38284524D01*
X40206195Y-38201334D01*
X40206190Y-38201325D01*
X40206185Y-38201315D01*
X40096751Y-38037537D01*
X40096748Y-38037533D01*
X40096743Y-38037527D01*
X39957471Y-37898255D01*
X39957465Y-37898250D01*
X39957464Y-37898249D01*
X39928222Y-37878710D01*
X44649500Y-37878710D01*
X44649500Y-38121288D01*
X44670989Y-38284524D01*
X44681161Y-38361785D01*
X44688163Y-38387916D01*
X44743947Y-38596104D01*
X44836772Y-38820203D01*
X44836773Y-38820207D01*
X44836780Y-38820220D01*
X44958060Y-39030283D01*
X44958062Y-39030286D01*
X44958281Y-39030615D01*
X44959284Y-39031879D01*
X45105726Y-39222728D01*
X45105730Y-39222733D01*
X45105733Y-39222736D01*
X45105739Y-39222743D01*
X45105747Y-39222751D01*
X45277242Y-39394247D01*
X45277256Y-39394260D01*
X45277262Y-39394265D01*
X45469711Y-39541936D01*
X45679788Y-39663224D01*
X45903900Y-39756054D01*
X46138211Y-39818838D01*
X46318586Y-39842584D01*
X46378710Y-39850500D01*
X46378711Y-39850500D01*
X46378712Y-39850500D01*
X46621283Y-39850500D01*
X46621289Y-39850500D01*
X46669388Y-39844167D01*
X46861789Y-39818838D01*
X47096100Y-39756054D01*
X47320212Y-39663224D01*
X47530289Y-39541936D01*
X47722738Y-39394265D01*
X47894265Y-39222738D01*
X48041936Y-39030289D01*
X48163224Y-38820212D01*
X48256054Y-38596100D01*
X48318838Y-38361789D01*
X48350500Y-38121288D01*
X48350500Y-37878712D01*
X48318838Y-37638211D01*
X48256054Y-37403900D01*
X48163224Y-37179788D01*
X48041936Y-36969711D01*
X47894265Y-36777262D01*
X47894260Y-36777256D01*
X47894259Y-36777255D01*
X47894247Y-36777242D01*
X47722751Y-36605747D01*
X47722743Y-36605739D01*
X47722736Y-36605733D01*
X47722733Y-36605730D01*
X47722728Y-36605726D01*
X47538037Y-36464009D01*
X47538036Y-36464008D01*
X47530293Y-36458067D01*
X47530292Y-36458066D01*
X47530289Y-36458064D01*
X47352257Y-36355277D01*
X47320214Y-36336777D01*
X47320208Y-36336774D01*
X47096104Y-36243947D01*
X46861781Y-36181160D01*
X46621290Y-36149500D01*
X46621289Y-36149500D01*
X46621288Y-36149500D01*
X46378712Y-36149500D01*
X46378711Y-36149500D01*
X46378710Y-36149500D01*
X46138217Y-36181160D01*
X45903894Y-36243947D01*
X45679790Y-36336774D01*
X45679782Y-36336778D01*
X45469706Y-36458067D01*
X45469697Y-36458073D01*
X45277270Y-36605726D01*
X45277255Y-36605740D01*
X45277247Y-36605747D01*
X45105747Y-36777247D01*
X45105740Y-36777255D01*
X45105726Y-36777270D01*
X44958073Y-36969697D01*
X44958067Y-36969706D01*
X44836778Y-37179782D01*
X44836774Y-37179790D01*
X44743947Y-37403894D01*
X44681160Y-37638217D01*
X44649500Y-37878710D01*
X39928222Y-37878710D01*
X39793690Y-37788818D01*
X39793689Y-37788817D01*
X39793684Y-37788814D01*
X39793671Y-37788807D01*
X39793664Y-37788803D01*
X39611692Y-37713429D01*
X39611675Y-37713425D01*
X39570000Y-37705135D01*
X39570000Y-38269804D01*
X39550315Y-38336843D01*
X39497511Y-38382598D01*
X39428353Y-38392542D01*
X39413908Y-38389579D01*
X39359497Y-38375000D01*
X39359496Y-38375000D01*
X39280504Y-38375000D01*
X39280502Y-38375000D01*
X39226092Y-38389579D01*
X39156242Y-38387916D01*
X39098380Y-38348752D01*
X39070877Y-38284524D01*
X39070000Y-38269804D01*
X39070000Y-37705136D01*
X39069999Y-37705135D01*
X39028330Y-37713424D01*
X39028306Y-37713429D01*
X38846334Y-37788803D01*
X38846325Y-37788808D01*
X38846308Y-37788818D01*
X38682534Y-37898249D01*
X38682533Y-37898250D01*
X38682527Y-37898255D01*
X38543255Y-38037527D01*
X38543250Y-38037533D01*
X38543249Y-38037534D01*
X38433818Y-38201308D01*
X38433808Y-38201325D01*
X38433803Y-38201334D01*
X38358430Y-38383304D01*
X38358421Y-38383343D01*
X38320000Y-38576500D01*
X31679998Y-38576500D01*
X31641572Y-38383318D01*
X31641569Y-38383306D01*
X31581557Y-38238422D01*
X31572830Y-38204235D01*
X31571345Y-38190429D01*
X31583747Y-38121674D01*
X31631352Y-38070536D01*
X31632634Y-38069776D01*
X31635887Y-38067847D01*
X31699141Y-38050500D01*
X33264073Y-38050500D01*
X33348615Y-38033682D01*
X33389744Y-38025501D01*
X33508127Y-37976465D01*
X33614669Y-37905277D01*
X34999116Y-36520827D01*
X35016320Y-36506485D01*
X35029280Y-36497534D01*
X35075560Y-36477947D01*
X35087864Y-36475501D01*
X35206247Y-36426465D01*
X35253751Y-36394724D01*
X35253751Y-36394723D01*
X35253753Y-36394723D01*
X35312789Y-36355277D01*
X35312794Y-36355272D01*
X35465205Y-36202861D01*
X35923212Y-35744852D01*
X35951461Y-35723706D01*
X35953613Y-35722530D01*
X35963641Y-35717054D01*
X36031913Y-35702202D01*
X36097378Y-35726618D01*
X36097386Y-35726624D01*
X36101580Y-35729764D01*
X36141824Y-35781572D01*
X36151948Y-35806014D01*
X36173534Y-35858126D01*
X36173535Y-35858127D01*
X36224127Y-35933845D01*
X36244726Y-35964673D01*
X36244729Y-35964676D01*
X36244732Y-35964680D01*
X37030321Y-36750269D01*
X37030324Y-36750271D01*
X37030327Y-36750274D01*
X37030330Y-36750276D01*
X37066583Y-36774499D01*
X37136873Y-36821465D01*
X37255256Y-36870501D01*
X37380927Y-36895500D01*
X37380928Y-36895500D01*
X37380931Y-36895500D01*
X38588172Y-36895500D01*
X38622911Y-36900494D01*
X38623103Y-36900521D01*
X38654918Y-36909863D01*
X38688867Y-36925735D01*
X38746239Y-36964069D01*
X38764791Y-36976465D01*
X38883174Y-37025501D01*
X39008845Y-37050500D01*
X39747612Y-37050500D01*
X39747614Y-37050500D01*
X39832156Y-37033682D01*
X39873285Y-37025501D01*
X39991668Y-36976465D01*
X40010220Y-36964069D01*
X40098210Y-36905277D01*
X40675277Y-36328210D01*
X40746465Y-36221668D01*
X40795501Y-36103285D01*
X40797771Y-36091873D01*
X40800672Y-36077291D01*
X40805162Y-36054713D01*
X40816901Y-36021433D01*
X40832268Y-35992054D01*
X40854457Y-35961857D01*
X43505276Y-33311041D01*
X43562556Y-33225315D01*
X43576464Y-33204500D01*
X43576465Y-33204498D01*
X43625501Y-33086115D01*
X43629231Y-33067362D01*
X43650500Y-32960440D01*
X43650500Y-32917484D01*
X43651223Y-32913250D01*
X43650673Y-32910928D01*
X43654085Y-32896503D01*
X43657536Y-32876308D01*
X43659039Y-32872038D01*
X43662458Y-32864207D01*
X43665788Y-32852865D01*
X43666875Y-32849780D01*
X43669454Y-32846198D01*
X43680739Y-32822063D01*
X43709390Y-32779185D01*
X43709390Y-32779184D01*
X43709394Y-32779179D01*
X43769737Y-32633497D01*
X43800500Y-32478842D01*
X43800500Y-32321158D01*
X43800500Y-32321155D01*
X43800500Y-32320972D01*
X43800066Y-32318976D01*
X43797713Y-32307147D01*
X43797713Y-32307146D01*
X43769738Y-32166505D01*
X43769737Y-32166504D01*
X43769737Y-32166503D01*
X43766257Y-32158103D01*
X43758786Y-32088636D01*
X43790058Y-32026155D01*
X43850145Y-31990500D01*
X43861348Y-31988184D01*
X45623585Y-31708095D01*
X45693298Y-31691885D01*
X45709812Y-31686788D01*
X45726744Y-31681564D01*
X45726752Y-31681561D01*
X45726762Y-31681558D01*
X45793464Y-31655674D01*
X45913515Y-31576370D01*
X45965739Y-31529954D01*
X45965744Y-31529949D01*
X46058588Y-31420033D01*
X47628680Y-28907884D01*
X47646139Y-28885938D01*
X47841789Y-28690289D01*
X47856538Y-28668215D01*
X47929394Y-28559179D01*
X47989737Y-28413497D01*
X48002331Y-28350185D01*
X48004743Y-28338059D01*
X48004743Y-28338057D01*
X48006247Y-28330499D01*
X48016037Y-28281280D01*
X48020500Y-28258846D01*
X48020500Y-27396824D01*
X48020982Y-27393855D01*
X48020583Y-27392284D01*
X48025522Y-27361893D01*
X48026805Y-27357523D01*
X48026885Y-27357546D01*
X48028382Y-27353064D01*
X48038837Y-27338034D01*
X48046550Y-27317335D01*
X48060516Y-27306872D01*
X48068283Y-27295708D01*
X48084194Y-27289134D01*
X48102469Y-27275444D01*
X48120460Y-27274151D01*
X48132858Y-27269029D01*
X48149566Y-27272059D01*
G37*
%TD.AperFunction*%
%TA.AperFunction,Conductor*%
G36*
X49792606Y-20505523D02*
G01*
X49807604Y-20509927D01*
X49866355Y-20547672D01*
X49867542Y-20549041D01*
X49895018Y-20603902D01*
X49896663Y-20611460D01*
X49899500Y-20637831D01*
X49899500Y-21154973D01*
X49899499Y-21154978D01*
X49899500Y-21154981D01*
X49894989Y-21186344D01*
X49894475Y-21189915D01*
X49890637Y-21202983D01*
X49852859Y-21261759D01*
X49789301Y-21290780D01*
X49727283Y-21283827D01*
X49719569Y-21280871D01*
X49695060Y-21268187D01*
X49613700Y-21213824D01*
X49613685Y-21213815D01*
X49613684Y-21213814D01*
X49613671Y-21213807D01*
X49613664Y-21213803D01*
X49431692Y-21138429D01*
X49431675Y-21138425D01*
X49390000Y-21130135D01*
X49390000Y-21694804D01*
X49370315Y-21761843D01*
X49317511Y-21807598D01*
X49248353Y-21817542D01*
X49233908Y-21814579D01*
X49179497Y-21800000D01*
X49179496Y-21800000D01*
X49100504Y-21800000D01*
X49100502Y-21800000D01*
X49046092Y-21814579D01*
X48976242Y-21812916D01*
X48918380Y-21773752D01*
X48890877Y-21709524D01*
X48890000Y-21694804D01*
X48890000Y-21130136D01*
X48889999Y-21130135D01*
X48848330Y-21138424D01*
X48848306Y-21138429D01*
X48666334Y-21213803D01*
X48666325Y-21213808D01*
X48666308Y-21213818D01*
X48502534Y-21323249D01*
X48502533Y-21323250D01*
X48502527Y-21323255D01*
X48363255Y-21462527D01*
X48363250Y-21462533D01*
X48363249Y-21462534D01*
X48253818Y-21626308D01*
X48253808Y-21626325D01*
X48253803Y-21626334D01*
X48178430Y-21808304D01*
X48178421Y-21808343D01*
X48140000Y-22001500D01*
X48140000Y-22001504D01*
X48140000Y-22250000D01*
X48716000Y-22250000D01*
X48783039Y-22269685D01*
X48828794Y-22322489D01*
X48840000Y-22374000D01*
X48840000Y-22626000D01*
X48820315Y-22693039D01*
X48767511Y-22738794D01*
X48716000Y-22750000D01*
X48140000Y-22750000D01*
X48140000Y-22998498D01*
X48178421Y-23191655D01*
X48178430Y-23191694D01*
X48253803Y-23373664D01*
X48253805Y-23373667D01*
X48253807Y-23373671D01*
X48253813Y-23373683D01*
X48253818Y-23373690D01*
X48363249Y-23537464D01*
X48363250Y-23537465D01*
X48363255Y-23537471D01*
X48502527Y-23676743D01*
X48502533Y-23676748D01*
X48502537Y-23676751D01*
X48666315Y-23786185D01*
X48666328Y-23786192D01*
X48713155Y-23805588D01*
X48848302Y-23861567D01*
X48848310Y-23861570D01*
X48890000Y-23869862D01*
X48890000Y-23305195D01*
X48909685Y-23238156D01*
X48962489Y-23192401D01*
X49031647Y-23182457D01*
X49046073Y-23185415D01*
X49100504Y-23200000D01*
X49179493Y-23200000D01*
X49179496Y-23200000D01*
X49233910Y-23185420D01*
X49303756Y-23187083D01*
X49361619Y-23226245D01*
X49389123Y-23290473D01*
X49390000Y-23305195D01*
X49390000Y-23869861D01*
X49390000Y-23869862D01*
X49431690Y-23861569D01*
X49431692Y-23861569D01*
X49613671Y-23786192D01*
X49613678Y-23786188D01*
X49691784Y-23733998D01*
X49723614Y-23718769D01*
X49736616Y-23714697D01*
X49806471Y-23713448D01*
X49865916Y-23750164D01*
X49894597Y-23805588D01*
X49896425Y-23813643D01*
X49899500Y-23841086D01*
X49899500Y-25184973D01*
X49894475Y-25219915D01*
X49890637Y-25232983D01*
X49883056Y-25244776D01*
X49879953Y-25258448D01*
X49864540Y-25273584D01*
X49852859Y-25291759D01*
X49840105Y-25297582D01*
X49830104Y-25307405D01*
X49808953Y-25311806D01*
X49789301Y-25320780D01*
X49774049Y-25319070D01*
X49761700Y-25321640D01*
X49727285Y-25313828D01*
X49719569Y-25310871D01*
X49695060Y-25298187D01*
X49613700Y-25243824D01*
X49613685Y-25243815D01*
X49613684Y-25243814D01*
X49613671Y-25243807D01*
X49613664Y-25243803D01*
X49431692Y-25168429D01*
X49431675Y-25168425D01*
X49390000Y-25160135D01*
X49390000Y-25724804D01*
X49370315Y-25791843D01*
X49317511Y-25837598D01*
X49248353Y-25847542D01*
X49233908Y-25844579D01*
X49179497Y-25830000D01*
X49179496Y-25830000D01*
X49100504Y-25830000D01*
X49100502Y-25830000D01*
X49046092Y-25844579D01*
X48976242Y-25842916D01*
X48918380Y-25803752D01*
X48890877Y-25739524D01*
X48890000Y-25724804D01*
X48890000Y-25160136D01*
X48889999Y-25160135D01*
X48848330Y-25168424D01*
X48848306Y-25168429D01*
X48666334Y-25243803D01*
X48666325Y-25243808D01*
X48666308Y-25243818D01*
X48502534Y-25353249D01*
X48502533Y-25353250D01*
X48502527Y-25353255D01*
X48363255Y-25492527D01*
X48363250Y-25492533D01*
X48253813Y-25656315D01*
X48252092Y-25659415D01*
X48251779Y-25659241D01*
X48239303Y-25678950D01*
X48229967Y-25690534D01*
X48172573Y-25730380D01*
X48102753Y-25732871D01*
X48102748Y-25732869D01*
X48102748Y-25732870D01*
X48102747Y-25732869D01*
X48090255Y-25729681D01*
X48058925Y-25716921D01*
X47932136Y-25643719D01*
X47858950Y-25624109D01*
X47858949Y-25624108D01*
X47785767Y-25604500D01*
X47785766Y-25604500D01*
X47634234Y-25604500D01*
X47487859Y-25643720D01*
X47487857Y-25643721D01*
X47356645Y-25719478D01*
X47356631Y-25719487D01*
X47356626Y-25719491D01*
X47249491Y-25826626D01*
X47249487Y-25826631D01*
X47249478Y-25826645D01*
X47173721Y-25957857D01*
X47173720Y-25957860D01*
X47143573Y-26070372D01*
X47143573Y-26070373D01*
X47129679Y-26102817D01*
X47121268Y-26116616D01*
X47070449Y-26163182D01*
X47063542Y-26166605D01*
X47008482Y-26179500D01*
X47004298Y-26179500D01*
X46967431Y-26182401D01*
X46903947Y-26200844D01*
X46899869Y-26201313D01*
X46897898Y-26202437D01*
X46880174Y-26203582D01*
X46862745Y-26205591D01*
X46859648Y-26205425D01*
X46850223Y-26204449D01*
X46840848Y-26204422D01*
X46837718Y-26204255D01*
X46830636Y-26201758D01*
X46803129Y-26196246D01*
X46803084Y-26196416D01*
X46800446Y-26195709D01*
X46796883Y-26194995D01*
X46795236Y-26194313D01*
X46780698Y-26192399D01*
X46780697Y-26192398D01*
X46682727Y-26179500D01*
X46682720Y-26179500D01*
X46457280Y-26179500D01*
X46457272Y-26179500D01*
X46457266Y-26179500D01*
X46457262Y-26179501D01*
X46370392Y-26190937D01*
X46370393Y-26190938D01*
X46367355Y-26191338D01*
X46351168Y-26192399D01*
X46288830Y-26192399D01*
X46272643Y-26191338D01*
X46266271Y-26190499D01*
X46266271Y-26190498D01*
X46182734Y-26179500D01*
X46182727Y-26179500D01*
X46182720Y-26179500D01*
X45957280Y-26179500D01*
X45957272Y-26179500D01*
X45957266Y-26179500D01*
X45957262Y-26179501D01*
X45870392Y-26190937D01*
X45870393Y-26190938D01*
X45867355Y-26191338D01*
X45851168Y-26192399D01*
X45788830Y-26192399D01*
X45772643Y-26191338D01*
X45766271Y-26190499D01*
X45766271Y-26190498D01*
X45682734Y-26179500D01*
X45682727Y-26179500D01*
X45682720Y-26179500D01*
X45457280Y-26179500D01*
X45457272Y-26179500D01*
X45457266Y-26179500D01*
X45457262Y-26179501D01*
X45370392Y-26190937D01*
X45370393Y-26190938D01*
X45367355Y-26191338D01*
X45351168Y-26192399D01*
X45288830Y-26192399D01*
X45272643Y-26191338D01*
X45266271Y-26190499D01*
X45266271Y-26190498D01*
X45182734Y-26179500D01*
X45182727Y-26179500D01*
X45182720Y-26179500D01*
X44957280Y-26179500D01*
X44957272Y-26179500D01*
X44957266Y-26179500D01*
X44957262Y-26179501D01*
X44870392Y-26190937D01*
X44870393Y-26190938D01*
X44867355Y-26191338D01*
X44851168Y-26192399D01*
X44788830Y-26192399D01*
X44772643Y-26191338D01*
X44766271Y-26190499D01*
X44766271Y-26190498D01*
X44682734Y-26179500D01*
X44682727Y-26179500D01*
X44682720Y-26179500D01*
X44457280Y-26179500D01*
X44457272Y-26179500D01*
X44457266Y-26179500D01*
X44457262Y-26179501D01*
X44370392Y-26190937D01*
X44370393Y-26190938D01*
X44367355Y-26191338D01*
X44351168Y-26192399D01*
X44288830Y-26192399D01*
X44272643Y-26191338D01*
X44266271Y-26190499D01*
X44266271Y-26190498D01*
X44182734Y-26179500D01*
X44182727Y-26179500D01*
X44182720Y-26179500D01*
X43957280Y-26179500D01*
X43957272Y-26179500D01*
X43957266Y-26179500D01*
X43957262Y-26179501D01*
X43870392Y-26190937D01*
X43870393Y-26190938D01*
X43867355Y-26191338D01*
X43851168Y-26192399D01*
X43788830Y-26192399D01*
X43772643Y-26191338D01*
X43766271Y-26190499D01*
X43766271Y-26190498D01*
X43682734Y-26179500D01*
X43682727Y-26179500D01*
X43682720Y-26179500D01*
X43457280Y-26179500D01*
X43457272Y-26179500D01*
X43457266Y-26179500D01*
X43457262Y-26179501D01*
X43370392Y-26190937D01*
X43370393Y-26190938D01*
X43367355Y-26191338D01*
X43351168Y-26192399D01*
X43288830Y-26192399D01*
X43272643Y-26191338D01*
X43266271Y-26190499D01*
X43266271Y-26190498D01*
X43182734Y-26179500D01*
X43182727Y-26179500D01*
X43182720Y-26179500D01*
X42957280Y-26179500D01*
X42957272Y-26179500D01*
X42957264Y-26179500D01*
X42844770Y-26194311D01*
X42836924Y-26196413D01*
X42836912Y-26196369D01*
X42823308Y-26200444D01*
X42818270Y-26201411D01*
X42812949Y-26201983D01*
X42810884Y-26202828D01*
X42802049Y-26204525D01*
X42796307Y-26203972D01*
X42776718Y-26205528D01*
X42776726Y-26206477D01*
X42774203Y-26206498D01*
X42770664Y-26206009D01*
X42767599Y-26206253D01*
X42764621Y-26205986D01*
X42764692Y-26205184D01*
X42738577Y-26201579D01*
X42672567Y-26182401D01*
X42635701Y-26179500D01*
X42635694Y-26179500D01*
X42631952Y-26179500D01*
X42621685Y-26177287D01*
X42614790Y-26178307D01*
X42589136Y-26170274D01*
X42580887Y-26168497D01*
X42578431Y-26167387D01*
X42576856Y-26166591D01*
X42576323Y-26166434D01*
X42572651Y-26164775D01*
X42548348Y-26143884D01*
X42528611Y-26128488D01*
X42527481Y-26129468D01*
X42524130Y-26125601D01*
X42523579Y-26124563D01*
X42522997Y-26124109D01*
X42520472Y-26120593D01*
X42520897Y-26120287D01*
X42519666Y-26119229D01*
X42518280Y-26114579D01*
X42498065Y-26076488D01*
X42466280Y-25957863D01*
X42427064Y-25889940D01*
X42390515Y-25826635D01*
X42283365Y-25719485D01*
X42213406Y-25679094D01*
X42152136Y-25643719D01*
X42078950Y-25624109D01*
X42078949Y-25624108D01*
X42005767Y-25604500D01*
X42005766Y-25604500D01*
X41854234Y-25604500D01*
X41707861Y-25643719D01*
X41616428Y-25696510D01*
X41616426Y-25696511D01*
X41592014Y-25710605D01*
X41574712Y-25718881D01*
X41550589Y-25728203D01*
X41480961Y-25734007D01*
X41419252Y-25701250D01*
X41414399Y-25696510D01*
X41413168Y-25695308D01*
X41388422Y-25658738D01*
X41387789Y-25659039D01*
X41387683Y-25659097D01*
X41387680Y-25659091D01*
X41387536Y-25659160D01*
X41386194Y-25656334D01*
X41386192Y-25656328D01*
X41386185Y-25656315D01*
X41276751Y-25492537D01*
X41276748Y-25492533D01*
X41276743Y-25492527D01*
X41137471Y-25353255D01*
X41137465Y-25353250D01*
X41137464Y-25353249D01*
X40973690Y-25243818D01*
X40973685Y-25243815D01*
X40973684Y-25243814D01*
X40973671Y-25243807D01*
X40973664Y-25243803D01*
X40791692Y-25168429D01*
X40791675Y-25168425D01*
X40750000Y-25160135D01*
X40750000Y-25724804D01*
X40730315Y-25791843D01*
X40677511Y-25837598D01*
X40608353Y-25847542D01*
X40593908Y-25844579D01*
X40539497Y-25830000D01*
X40539496Y-25830000D01*
X40460504Y-25830000D01*
X40460502Y-25830000D01*
X40406092Y-25844579D01*
X40336242Y-25842916D01*
X40278380Y-25803752D01*
X40250877Y-25739524D01*
X40250000Y-25724804D01*
X40250000Y-25160136D01*
X40249999Y-25160135D01*
X40208330Y-25168424D01*
X40208306Y-25168429D01*
X40026334Y-25243803D01*
X40026325Y-25243808D01*
X40026308Y-25243818D01*
X39862534Y-25353249D01*
X39862533Y-25353250D01*
X39862527Y-25353255D01*
X39723255Y-25492527D01*
X39723250Y-25492533D01*
X39613818Y-25656308D01*
X39613808Y-25656325D01*
X39613803Y-25656334D01*
X39538430Y-25838304D01*
X39538421Y-25838343D01*
X39500000Y-26031500D01*
X39500000Y-26031504D01*
X39500000Y-26430000D01*
X40076000Y-26430000D01*
X40143039Y-26449685D01*
X40188794Y-26502489D01*
X40200000Y-26554000D01*
X40200000Y-26806000D01*
X40180315Y-26873039D01*
X40127511Y-26918794D01*
X40076000Y-26930000D01*
X39500000Y-26930000D01*
X39500000Y-27328498D01*
X39538421Y-27521655D01*
X39538430Y-27521694D01*
X39613803Y-27703664D01*
X39613808Y-27703673D01*
X39613818Y-27703690D01*
X39723249Y-27867464D01*
X39723250Y-27867465D01*
X39723255Y-27867471D01*
X39792129Y-27936345D01*
X39825614Y-27997668D01*
X39820630Y-28067360D01*
X39778758Y-28123293D01*
X39729453Y-28145479D01*
X34142500Y-29295734D01*
X34110395Y-29303445D01*
X34094794Y-29307736D01*
X34063319Y-29317508D01*
X34063307Y-29317513D01*
X33935467Y-29383488D01*
X33878560Y-29424047D01*
X33878373Y-29424206D01*
X33877534Y-29425026D01*
X33774481Y-29523371D01*
X33774472Y-29523381D01*
X31628003Y-32255250D01*
X31617094Y-32269658D01*
X31611839Y-32276862D01*
X31601517Y-32291559D01*
X31601508Y-32291574D01*
X31538708Y-32421014D01*
X31538707Y-32421018D01*
X31517464Y-32487585D01*
X31493675Y-32629477D01*
X31493674Y-32629479D01*
X31482224Y-33120728D01*
X31483032Y-33163419D01*
X31483181Y-33165848D01*
X31467625Y-33233964D01*
X31424194Y-33279150D01*
X31409992Y-33287851D01*
X31389806Y-33293716D01*
X31389803Y-33293717D01*
X31248449Y-33377313D01*
X31248443Y-33377318D01*
X31223875Y-33401884D01*
X31211355Y-33409556D01*
X31209453Y-33410070D01*
X31205996Y-33412658D01*
X31192278Y-33420148D01*
X31124006Y-33434998D01*
X31110420Y-33434026D01*
X31071816Y-33424903D01*
X31065189Y-33422158D01*
X30971687Y-33383428D01*
X30971683Y-33383427D01*
X30971680Y-33383426D01*
X30971675Y-33383425D01*
X30930000Y-33375135D01*
X30930000Y-33939804D01*
X30910315Y-34006843D01*
X30857511Y-34052598D01*
X30788353Y-34062542D01*
X30773908Y-34059579D01*
X30719497Y-34045000D01*
X30719496Y-34045000D01*
X30640504Y-34045000D01*
X30640502Y-34045000D01*
X30586092Y-34059579D01*
X30516242Y-34057916D01*
X30458380Y-34018752D01*
X30430877Y-33954524D01*
X30430000Y-33939804D01*
X30430000Y-33375136D01*
X30429999Y-33375135D01*
X30388330Y-33383424D01*
X30388306Y-33383429D01*
X30206334Y-33458803D01*
X30206325Y-33458808D01*
X30206308Y-33458818D01*
X30042534Y-33568249D01*
X30042533Y-33568250D01*
X30042527Y-33568255D01*
X29903255Y-33707527D01*
X29903250Y-33707533D01*
X29903249Y-33707534D01*
X29793818Y-33871308D01*
X29793808Y-33871325D01*
X29793803Y-33871334D01*
X29718430Y-34053304D01*
X29718421Y-34053343D01*
X29680000Y-34246500D01*
X29680000Y-34246504D01*
X29680000Y-34645000D01*
X30256000Y-34645000D01*
X30323039Y-34664685D01*
X30368794Y-34717489D01*
X30380000Y-34769000D01*
X30380000Y-35021000D01*
X30360315Y-35088039D01*
X30307511Y-35133794D01*
X30256000Y-35145000D01*
X29680000Y-35145000D01*
X29680000Y-35543498D01*
X29718421Y-35736655D01*
X29718429Y-35736690D01*
X29723850Y-35749778D01*
X29724083Y-35751946D01*
X29725393Y-35753690D01*
X29732575Y-35783962D01*
X29733537Y-35792907D01*
X29730371Y-35810461D01*
X29731316Y-35819248D01*
X29726127Y-35833996D01*
X29721137Y-35861666D01*
X29673530Y-35912806D01*
X29605832Y-35930090D01*
X29545087Y-35911667D01*
X29540727Y-35908974D01*
X29534130Y-35903755D01*
X29531753Y-35902873D01*
X29529901Y-35900409D01*
X29518208Y-35891157D01*
X27955150Y-34328098D01*
X26629426Y-33002374D01*
X26608274Y-32974118D01*
X26595667Y-32951029D01*
X26580500Y-32891604D01*
X26580500Y-32324977D01*
X26583567Y-32312122D01*
X26582568Y-32302424D01*
X26585521Y-32290050D01*
X26588707Y-32279197D01*
X26593029Y-32272470D01*
X26593861Y-32268985D01*
X26598817Y-32259192D01*
X26607503Y-32249943D01*
X26626477Y-32220416D01*
X26641822Y-32213406D01*
X26646652Y-32208265D01*
X26660889Y-32204697D01*
X26690031Y-32191387D01*
X26705273Y-32193577D01*
X26714427Y-32191284D01*
X26733028Y-32197566D01*
X26759186Y-32201325D01*
X26760614Y-32201977D01*
X26772366Y-32210851D01*
X26780623Y-32213640D01*
X26787556Y-32222321D01*
X26803494Y-32234356D01*
X26803850Y-32234774D01*
X26814992Y-32250083D01*
X26831487Y-32276826D01*
X26832729Y-32278838D01*
X26832730Y-32278842D01*
X26832731Y-32278842D01*
X26855162Y-32315210D01*
X26857096Y-32318346D01*
X26857288Y-32318656D01*
X26981344Y-32442712D01*
X27130666Y-32534814D01*
X27297203Y-32589999D01*
X27399991Y-32600500D01*
X28200008Y-32600499D01*
X28200016Y-32600498D01*
X28200019Y-32600498D01*
X28200023Y-32600497D01*
X28200323Y-32600478D01*
X28201351Y-32600361D01*
X28286184Y-32591696D01*
X28302797Y-32589999D01*
X28469334Y-32534814D01*
X28618656Y-32442712D01*
X28700074Y-32361292D01*
X28728321Y-32340148D01*
X28742041Y-32332656D01*
X28810298Y-32317806D01*
X28812108Y-32317935D01*
X28870308Y-32337303D01*
X28876821Y-32341489D01*
X28897461Y-32358122D01*
X28981654Y-32442315D01*
X29130875Y-32534356D01*
X29130880Y-32534358D01*
X29297299Y-32589504D01*
X29297300Y-32589504D01*
X29297302Y-32589505D01*
X29297309Y-32589506D01*
X29400019Y-32599999D01*
X29549999Y-32599999D01*
X30050000Y-32599999D01*
X30199960Y-32599999D01*
X30199972Y-32599999D01*
X30199986Y-32599998D01*
X30302697Y-32589505D01*
X30469119Y-32534358D01*
X30469124Y-32534356D01*
X30618345Y-32442315D01*
X30742315Y-32318345D01*
X30834356Y-32169124D01*
X30834358Y-32169119D01*
X30889505Y-32002697D01*
X30889506Y-32002690D01*
X30899999Y-31899986D01*
X30900000Y-31899973D01*
X30900000Y-31650000D01*
X30050000Y-31650000D01*
X30050000Y-32599999D01*
X29549999Y-32599999D01*
X29550000Y-32599998D01*
X29550000Y-31150000D01*
X30050000Y-31150000D01*
X30899999Y-31150000D01*
X30899999Y-30900028D01*
X30899998Y-30900013D01*
X30889505Y-30797302D01*
X30834358Y-30630880D01*
X30834356Y-30630875D01*
X30742315Y-30481654D01*
X30618345Y-30357684D01*
X30469124Y-30265643D01*
X30469119Y-30265641D01*
X30467743Y-30265185D01*
X30302699Y-30210494D01*
X30302694Y-30210493D01*
X30199991Y-30200000D01*
X30199986Y-30200000D01*
X30050000Y-30200000D01*
X30050000Y-31150000D01*
X29550000Y-31150000D01*
X29550000Y-30200000D01*
X29400025Y-30200000D01*
X29400009Y-30200001D01*
X29297304Y-30210493D01*
X29297302Y-30210494D01*
X29130887Y-30265638D01*
X29130879Y-30265641D01*
X29130877Y-30265642D01*
X29130875Y-30265643D01*
X29048894Y-30316209D01*
X28981658Y-30357681D01*
X28900641Y-30438698D01*
X28900638Y-30438699D01*
X28900638Y-30438701D01*
X28872383Y-30459850D01*
X28858663Y-30467341D01*
X28790410Y-30482192D01*
X28790390Y-30482190D01*
X28790389Y-30482191D01*
X28790387Y-30482190D01*
X28788603Y-30482063D01*
X28730397Y-30462695D01*
X28723882Y-30458508D01*
X28703246Y-30441878D01*
X28618657Y-30357289D01*
X28618656Y-30357288D01*
X28473154Y-30267542D01*
X28469336Y-30265187D01*
X28469331Y-30265185D01*
X28311265Y-30212807D01*
X28308439Y-30211639D01*
X28302796Y-30209999D01*
X28200025Y-30199500D01*
X28200016Y-30199500D01*
X28200009Y-30199500D01*
X27588638Y-30199500D01*
X27588637Y-30199499D01*
X27588637Y-30199500D01*
X27553702Y-30194477D01*
X27528460Y-30187065D01*
X27475715Y-30155769D01*
X27129426Y-29809480D01*
X27108274Y-29781224D01*
X27095667Y-29758135D01*
X27080500Y-29698710D01*
X27080500Y-28447325D01*
X27083932Y-28418354D01*
X27084653Y-28415353D01*
X27086130Y-28410323D01*
X27086176Y-28409012D01*
X27087774Y-28402365D01*
X27102939Y-28375964D01*
X27116086Y-28348482D01*
X27116976Y-28347491D01*
X27120573Y-28345268D01*
X27122577Y-28341780D01*
X27145183Y-28330063D01*
X27176415Y-28310766D01*
X27195955Y-28307058D01*
X27215970Y-28304905D01*
X27263824Y-28309118D01*
X27327431Y-28327598D01*
X27364306Y-28330500D01*
X27364314Y-28330500D01*
X27795686Y-28330500D01*
X27795694Y-28330500D01*
X27832569Y-28327598D01*
X27832571Y-28327597D01*
X27832573Y-28327597D01*
X27929355Y-28299479D01*
X27963950Y-28294555D01*
X27997843Y-28294555D01*
X28032438Y-28299478D01*
X28127508Y-28327100D01*
X28128313Y-28327163D01*
X28129979Y-28327294D01*
X28129985Y-28327294D01*
X28129998Y-28327295D01*
X28130000Y-28327295D01*
X28130000Y-28327294D01*
X28130000Y-28269137D01*
X28135022Y-28234204D01*
X28142434Y-28208959D01*
X28173728Y-28156216D01*
X28248081Y-28081865D01*
X28331744Y-27940398D01*
X28377598Y-27782569D01*
X28380500Y-27745694D01*
X28380500Y-27396824D01*
X28380982Y-27393855D01*
X28380583Y-27392284D01*
X28385522Y-27361893D01*
X28386805Y-27357523D01*
X28386885Y-27357546D01*
X28388382Y-27353064D01*
X28398837Y-27338034D01*
X28406550Y-27317335D01*
X28420516Y-27306872D01*
X28428283Y-27295708D01*
X28444194Y-27289134D01*
X28462469Y-27275444D01*
X28480460Y-27274151D01*
X28492858Y-27269029D01*
X28509566Y-27272059D01*
X28532159Y-27270436D01*
X28547867Y-27279006D01*
X28561606Y-27281498D01*
X28574529Y-27293552D01*
X28593494Y-27303899D01*
X28601681Y-27318878D01*
X28612700Y-27329156D01*
X28617397Y-27347632D01*
X28626996Y-27365193D01*
X28627153Y-27365913D01*
X28630000Y-27392331D01*
X28630000Y-28327295D01*
X28630001Y-28327295D01*
X28630003Y-28327295D01*
X28630003Y-28327294D01*
X28632486Y-28327100D01*
X28790198Y-28281281D01*
X28931550Y-28197686D01*
X28931553Y-28197683D01*
X28945747Y-28183488D01*
X28945753Y-28183485D01*
X28973993Y-28162345D01*
X28987721Y-28154849D01*
X29005141Y-28151060D01*
X29007070Y-28150007D01*
X29009261Y-28150163D01*
X29055984Y-28140000D01*
X29059098Y-28140222D01*
X29069568Y-28140971D01*
X29108173Y-28150093D01*
X29208306Y-28191568D01*
X29208310Y-28191570D01*
X29250000Y-28199862D01*
X29250000Y-27635195D01*
X29269685Y-27568156D01*
X29322489Y-27522401D01*
X29391647Y-27512457D01*
X29406073Y-27515415D01*
X29460504Y-27530000D01*
X29539493Y-27530000D01*
X29539496Y-27530000D01*
X29593910Y-27515420D01*
X29663756Y-27517083D01*
X29721619Y-27556245D01*
X29749123Y-27620473D01*
X29750000Y-27635195D01*
X29750000Y-28199861D01*
X29750000Y-28199862D01*
X29791690Y-28191569D01*
X29791692Y-28191569D01*
X29956527Y-28123293D01*
X29973664Y-28116195D01*
X29973664Y-28116194D01*
X29973671Y-28116192D01*
X29973684Y-28116185D01*
X30137462Y-28006751D01*
X30137466Y-28006748D01*
X30276748Y-27867466D01*
X30276751Y-27867462D01*
X30386185Y-27703684D01*
X30386192Y-27703671D01*
X30461569Y-27521693D01*
X30461572Y-27521681D01*
X30498480Y-27336130D01*
X30499203Y-27333401D01*
X30500000Y-27328493D01*
X30500000Y-26930000D01*
X29924000Y-26930000D01*
X29856961Y-26910315D01*
X29811206Y-26857511D01*
X29800000Y-26806000D01*
X29800000Y-26554000D01*
X29819685Y-26486961D01*
X29872489Y-26441206D01*
X29924000Y-26430000D01*
X30500000Y-26430000D01*
X30500000Y-26031506D01*
X30499909Y-26030768D01*
X30499408Y-26028533D01*
X30461577Y-25838343D01*
X30461576Y-25838342D01*
X30461572Y-25838318D01*
X30461569Y-25838306D01*
X30420653Y-25739524D01*
X30386195Y-25656334D01*
X30386190Y-25656325D01*
X30386185Y-25656315D01*
X30276751Y-25492537D01*
X30276748Y-25492533D01*
X30276743Y-25492527D01*
X30137471Y-25353255D01*
X30137465Y-25353250D01*
X30137464Y-25353249D01*
X29973690Y-25243818D01*
X29973685Y-25243815D01*
X29973684Y-25243814D01*
X29973671Y-25243807D01*
X29973664Y-25243803D01*
X29791692Y-25168429D01*
X29791675Y-25168425D01*
X29750000Y-25160135D01*
X29750000Y-25724804D01*
X29730315Y-25791843D01*
X29677511Y-25837598D01*
X29608353Y-25847542D01*
X29593908Y-25844579D01*
X29539497Y-25830000D01*
X29539496Y-25830000D01*
X29460504Y-25830000D01*
X29460502Y-25830000D01*
X29406092Y-25844579D01*
X29336242Y-25842916D01*
X29278380Y-25803752D01*
X29250877Y-25739524D01*
X29250000Y-25724804D01*
X29250000Y-25160136D01*
X29249999Y-25160135D01*
X29208330Y-25168424D01*
X29208306Y-25168429D01*
X29026334Y-25243803D01*
X29026325Y-25243808D01*
X29026308Y-25243818D01*
X28862534Y-25353249D01*
X28862533Y-25353250D01*
X28862527Y-25353255D01*
X28723255Y-25492527D01*
X28723250Y-25492533D01*
X28613813Y-25656315D01*
X28612092Y-25659415D01*
X28611779Y-25659241D01*
X28599303Y-25678950D01*
X28589967Y-25690534D01*
X28532573Y-25730380D01*
X28462753Y-25732871D01*
X28462748Y-25732869D01*
X28462748Y-25732870D01*
X28462747Y-25732869D01*
X28450255Y-25729681D01*
X28418925Y-25716921D01*
X28292136Y-25643719D01*
X28218950Y-25624109D01*
X28218949Y-25624108D01*
X28145767Y-25604500D01*
X28145766Y-25604500D01*
X27994234Y-25604500D01*
X27847859Y-25643720D01*
X27847857Y-25643721D01*
X27716645Y-25719478D01*
X27716631Y-25719487D01*
X27716626Y-25719491D01*
X27609491Y-25826626D01*
X27609487Y-25826631D01*
X27609478Y-25826645D01*
X27533721Y-25957857D01*
X27533720Y-25957860D01*
X27503573Y-26070372D01*
X27503573Y-26070373D01*
X27489679Y-26102817D01*
X27481268Y-26116616D01*
X27430449Y-26163182D01*
X27423542Y-26166605D01*
X27368482Y-26179500D01*
X27364298Y-26179500D01*
X27327431Y-26182401D01*
X27263947Y-26200844D01*
X27259869Y-26201313D01*
X27257898Y-26202437D01*
X27240174Y-26203582D01*
X27222745Y-26205591D01*
X27219648Y-26205425D01*
X27210223Y-26204449D01*
X27200848Y-26204422D01*
X27197718Y-26204255D01*
X27190636Y-26201758D01*
X27163129Y-26196246D01*
X27163084Y-26196416D01*
X27160446Y-26195709D01*
X27156883Y-26194995D01*
X27155236Y-26194313D01*
X27140698Y-26192399D01*
X27140697Y-26192398D01*
X27042727Y-26179500D01*
X27042720Y-26179500D01*
X26817280Y-26179500D01*
X26817272Y-26179500D01*
X26817266Y-26179500D01*
X26817261Y-26179501D01*
X26734507Y-26190396D01*
X26728451Y-26191043D01*
X26696482Y-26193663D01*
X26681208Y-26194915D01*
X26654894Y-26194268D01*
X26630398Y-26191043D01*
X26542727Y-26179500D01*
X26542720Y-26179500D01*
X26517394Y-26179500D01*
X26512955Y-26178735D01*
X26510506Y-26179309D01*
X26490695Y-26174900D01*
X26475904Y-26172353D01*
X26473509Y-26171502D01*
X26464884Y-26168035D01*
X26458287Y-26166098D01*
X26455026Y-26164940D01*
X26441554Y-26155184D01*
X26408835Y-26135768D01*
X25844677Y-25571609D01*
X25844673Y-25571606D01*
X25844669Y-25571603D01*
X25738127Y-25500415D01*
X25719098Y-25492533D01*
X25719084Y-25492527D01*
X25619753Y-25451382D01*
X25619733Y-25451375D01*
X25619725Y-25451373D01*
X25494074Y-25426380D01*
X25494071Y-25426380D01*
X25494069Y-25426380D01*
X25365931Y-25426380D01*
X25365929Y-25426380D01*
X25365924Y-25426380D01*
X25259426Y-25447564D01*
X25259414Y-25447567D01*
X25240256Y-25451379D01*
X25240254Y-25451379D01*
X25240253Y-25451380D01*
X25213004Y-25462666D01*
X25212985Y-25462673D01*
X25121878Y-25500412D01*
X25121870Y-25500416D01*
X25015323Y-25571608D01*
X24456359Y-26130572D01*
X24433142Y-26148817D01*
X24430625Y-26150348D01*
X24421887Y-26155120D01*
X24418855Y-26157511D01*
X24412423Y-26161426D01*
X24385639Y-26168582D01*
X24359911Y-26178923D01*
X24347959Y-26179500D01*
X24317280Y-26179500D01*
X24317274Y-26179500D01*
X24317269Y-26179501D01*
X24211804Y-26193386D01*
X24190197Y-26194328D01*
X24181187Y-26193933D01*
X24173161Y-26192399D01*
X24163684Y-26192399D01*
X24163583Y-26193163D01*
X24143408Y-26192280D01*
X24142552Y-26191987D01*
X24132643Y-26191338D01*
X24126271Y-26190499D01*
X24126271Y-26190498D01*
X24042734Y-26179500D01*
X24042727Y-26179500D01*
X24042720Y-26179500D01*
X23817280Y-26179500D01*
X23817272Y-26179500D01*
X23817266Y-26179500D01*
X23817262Y-26179501D01*
X23730392Y-26190937D01*
X23730393Y-26190938D01*
X23727355Y-26191338D01*
X23711168Y-26192399D01*
X23648830Y-26192399D01*
X23632643Y-26191338D01*
X23626271Y-26190499D01*
X23626271Y-26190498D01*
X23542734Y-26179500D01*
X23542727Y-26179500D01*
X23542720Y-26179500D01*
X23317280Y-26179500D01*
X23317272Y-26179500D01*
X23317264Y-26179500D01*
X23204770Y-26194311D01*
X23196924Y-26196413D01*
X23196912Y-26196369D01*
X23183308Y-26200444D01*
X23178270Y-26201411D01*
X23172949Y-26201983D01*
X23170884Y-26202828D01*
X23162049Y-26204525D01*
X23156307Y-26203972D01*
X23136718Y-26205528D01*
X23136726Y-26206477D01*
X23134203Y-26206498D01*
X23130664Y-26206009D01*
X23127599Y-26206253D01*
X23124621Y-26205986D01*
X23124692Y-26205184D01*
X23098577Y-26201579D01*
X23032567Y-26182401D01*
X22995701Y-26179500D01*
X22995694Y-26179500D01*
X22991952Y-26179500D01*
X22981685Y-26177287D01*
X22974790Y-26178307D01*
X22949136Y-26170274D01*
X22940887Y-26168497D01*
X22938431Y-26167387D01*
X22936856Y-26166591D01*
X22936323Y-26166434D01*
X22932651Y-26164775D01*
X22908348Y-26143884D01*
X22888611Y-26128488D01*
X22887481Y-26129468D01*
X22884130Y-26125601D01*
X22883579Y-26124563D01*
X22882997Y-26124109D01*
X22880472Y-26120593D01*
X22880897Y-26120287D01*
X22879666Y-26119229D01*
X22878280Y-26114579D01*
X22858065Y-26076488D01*
X22826280Y-25957863D01*
X22787064Y-25889940D01*
X22750515Y-25826635D01*
X22643365Y-25719485D01*
X22573406Y-25679094D01*
X22512136Y-25643719D01*
X22438950Y-25624109D01*
X22438949Y-25624108D01*
X22365767Y-25604500D01*
X22365766Y-25604500D01*
X22214234Y-25604500D01*
X22067861Y-25643719D01*
X21976428Y-25696510D01*
X21976426Y-25696511D01*
X21952014Y-25710605D01*
X21934712Y-25718881D01*
X21910589Y-25728203D01*
X21840961Y-25734007D01*
X21779252Y-25701250D01*
X21774399Y-25696510D01*
X21773168Y-25695308D01*
X21748422Y-25658738D01*
X21747789Y-25659039D01*
X21747683Y-25659097D01*
X21747680Y-25659091D01*
X21747536Y-25659160D01*
X21746194Y-25656334D01*
X21746192Y-25656328D01*
X21746185Y-25656315D01*
X21636751Y-25492537D01*
X21636748Y-25492533D01*
X21636743Y-25492527D01*
X21497471Y-25353255D01*
X21497465Y-25353250D01*
X21497464Y-25353249D01*
X21333690Y-25243818D01*
X21333685Y-25243815D01*
X21333684Y-25243814D01*
X21333671Y-25243807D01*
X21333664Y-25243803D01*
X21151692Y-25168429D01*
X21151675Y-25168425D01*
X21110000Y-25160135D01*
X21110000Y-25724804D01*
X21090315Y-25791843D01*
X21037511Y-25837598D01*
X20968353Y-25847542D01*
X20953908Y-25844579D01*
X20899497Y-25830000D01*
X20899496Y-25830000D01*
X20820504Y-25830000D01*
X20820502Y-25830000D01*
X20766092Y-25844579D01*
X20696242Y-25842916D01*
X20638380Y-25803752D01*
X20610877Y-25739524D01*
X20610000Y-25724804D01*
X20610000Y-25160136D01*
X20609999Y-25160135D01*
X20568330Y-25168424D01*
X20568306Y-25168429D01*
X20386334Y-25243803D01*
X20386325Y-25243808D01*
X20386313Y-25243815D01*
X20308213Y-25296000D01*
X20308212Y-25296001D01*
X20276373Y-25311232D01*
X20263377Y-25315301D01*
X20193519Y-25316547D01*
X20134077Y-25279827D01*
X20105400Y-25224401D01*
X20103571Y-25216340D01*
X20100500Y-25188912D01*
X20100500Y-23845025D01*
X20105523Y-23810091D01*
X20109360Y-23797023D01*
X20116937Y-23785232D01*
X20120039Y-23771562D01*
X20135454Y-23756419D01*
X20147134Y-23738245D01*
X20159882Y-23732422D01*
X20169883Y-23722599D01*
X20191035Y-23718194D01*
X20210689Y-23709219D01*
X20225939Y-23710927D01*
X20238285Y-23708357D01*
X20272698Y-23716164D01*
X20280422Y-23719124D01*
X20304938Y-23731809D01*
X20364432Y-23771562D01*
X20386324Y-23786190D01*
X20386337Y-23786196D01*
X20568302Y-23861567D01*
X20568310Y-23861570D01*
X20610000Y-23869862D01*
X20610000Y-23305195D01*
X20629685Y-23238156D01*
X20682489Y-23192401D01*
X20751647Y-23182457D01*
X20766073Y-23185415D01*
X20820504Y-23200000D01*
X20899493Y-23200000D01*
X20899496Y-23200000D01*
X20953910Y-23185420D01*
X21023756Y-23187083D01*
X21081619Y-23226245D01*
X21109123Y-23290473D01*
X21110000Y-23305195D01*
X21110000Y-23869861D01*
X21110000Y-23869862D01*
X21151690Y-23861569D01*
X21151692Y-23861569D01*
X21333659Y-23786197D01*
X21333664Y-23786195D01*
X21333664Y-23786194D01*
X21333671Y-23786192D01*
X21333684Y-23786185D01*
X21497462Y-23676751D01*
X21497466Y-23676748D01*
X21636748Y-23537466D01*
X21636751Y-23537462D01*
X21746185Y-23373684D01*
X21746192Y-23373671D01*
X21821569Y-23191693D01*
X21821572Y-23191681D01*
X21858480Y-23006130D01*
X21859203Y-23003401D01*
X21860000Y-22998493D01*
X21860000Y-22750000D01*
X21284000Y-22750000D01*
X21216961Y-22730315D01*
X21171206Y-22677511D01*
X21160000Y-22626000D01*
X21160000Y-22374000D01*
X21179685Y-22306961D01*
X21232489Y-22261206D01*
X21284000Y-22250000D01*
X21860000Y-22250000D01*
X21860000Y-22004121D01*
X21860000Y-22001508D01*
X21859999Y-22001504D01*
X21859998Y-22001500D01*
X28500000Y-22001500D01*
X28500000Y-22001504D01*
X28500000Y-22250000D01*
X29076000Y-22250000D01*
X29143039Y-22269685D01*
X29188794Y-22322489D01*
X29200000Y-22374000D01*
X29200000Y-22626000D01*
X29180315Y-22693039D01*
X29127511Y-22738794D01*
X29076000Y-22750000D01*
X28500000Y-22750000D01*
X28500000Y-22998498D01*
X28538421Y-23191655D01*
X28538430Y-23191694D01*
X28613803Y-23373664D01*
X28613805Y-23373667D01*
X28613807Y-23373671D01*
X28613813Y-23373683D01*
X28613818Y-23373690D01*
X28723249Y-23537464D01*
X28723250Y-23537465D01*
X28723255Y-23537471D01*
X28862527Y-23676743D01*
X28862533Y-23676748D01*
X28862537Y-23676751D01*
X29026315Y-23786185D01*
X29026328Y-23786192D01*
X29073155Y-23805588D01*
X29208302Y-23861567D01*
X29208310Y-23861570D01*
X29250000Y-23869862D01*
X29250000Y-23305195D01*
X29269685Y-23238156D01*
X29322489Y-23192401D01*
X29391647Y-23182457D01*
X29406073Y-23185415D01*
X29460504Y-23200000D01*
X29539493Y-23200000D01*
X29539496Y-23200000D01*
X29593910Y-23185420D01*
X29663756Y-23187083D01*
X29721619Y-23226245D01*
X29749123Y-23290473D01*
X29750000Y-23305195D01*
X29750000Y-23869861D01*
X29750000Y-23869862D01*
X29791690Y-23861569D01*
X29791692Y-23861569D01*
X29973659Y-23786197D01*
X29973664Y-23786195D01*
X29973664Y-23786194D01*
X29973671Y-23786192D01*
X29973684Y-23786185D01*
X30137462Y-23676751D01*
X30137466Y-23676748D01*
X30276748Y-23537466D01*
X30276751Y-23537462D01*
X30382827Y-23378710D01*
X33149500Y-23378710D01*
X33149500Y-23621288D01*
X33181160Y-23861781D01*
X33243947Y-24096104D01*
X33336772Y-24320203D01*
X33336773Y-24320207D01*
X33336780Y-24320220D01*
X33458060Y-24530283D01*
X33458062Y-24530286D01*
X33458281Y-24530615D01*
X33459284Y-24531879D01*
X33605726Y-24722728D01*
X33605730Y-24722733D01*
X33605733Y-24722736D01*
X33605739Y-24722743D01*
X33605747Y-24722751D01*
X33777242Y-24894247D01*
X33777256Y-24894260D01*
X33777262Y-24894265D01*
X33969711Y-25041936D01*
X34179788Y-25163224D01*
X34403900Y-25256054D01*
X34638211Y-25318838D01*
X34818586Y-25342584D01*
X34878710Y-25350500D01*
X34878711Y-25350500D01*
X34878712Y-25350500D01*
X35121283Y-25350500D01*
X35121289Y-25350500D01*
X35169388Y-25344167D01*
X35361789Y-25318838D01*
X35596100Y-25256054D01*
X35820212Y-25163224D01*
X36030289Y-25041936D01*
X36222738Y-24894265D01*
X36394265Y-24722738D01*
X36541936Y-24530289D01*
X36663224Y-24320212D01*
X36756054Y-24096100D01*
X36818838Y-23861789D01*
X36850500Y-23621288D01*
X36850500Y-23378712D01*
X36849835Y-23373664D01*
X36831996Y-23238156D01*
X36818838Y-23138211D01*
X36756054Y-22903900D01*
X36690688Y-22746091D01*
X36663227Y-22679794D01*
X36663222Y-22679785D01*
X36541936Y-22469711D01*
X36394265Y-22277262D01*
X36394260Y-22277256D01*
X36394259Y-22277255D01*
X36394247Y-22277242D01*
X36222758Y-22105753D01*
X36222744Y-22105740D01*
X36222733Y-22105730D01*
X36222728Y-22105726D01*
X36207175Y-22093792D01*
X36207160Y-22093780D01*
X36207138Y-22093763D01*
X36086897Y-22001500D01*
X39500000Y-22001500D01*
X39500000Y-22001504D01*
X39500000Y-22250000D01*
X40076000Y-22250000D01*
X40143039Y-22269685D01*
X40188794Y-22322489D01*
X40200000Y-22374000D01*
X40200000Y-22626000D01*
X40180315Y-22693039D01*
X40127511Y-22738794D01*
X40076000Y-22750000D01*
X39500000Y-22750000D01*
X39500000Y-22998498D01*
X39538421Y-23191655D01*
X39538430Y-23191694D01*
X39613803Y-23373664D01*
X39613805Y-23373667D01*
X39613807Y-23373671D01*
X39613813Y-23373683D01*
X39613818Y-23373690D01*
X39723249Y-23537464D01*
X39723250Y-23537465D01*
X39723255Y-23537471D01*
X39862527Y-23676743D01*
X39862533Y-23676748D01*
X39862537Y-23676751D01*
X40026315Y-23786185D01*
X40026328Y-23786192D01*
X40073155Y-23805588D01*
X40208302Y-23861567D01*
X40208310Y-23861570D01*
X40250000Y-23869862D01*
X40250000Y-23305195D01*
X40269685Y-23238156D01*
X40322489Y-23192401D01*
X40391647Y-23182457D01*
X40406073Y-23185415D01*
X40460504Y-23200000D01*
X40539493Y-23200000D01*
X40539496Y-23200000D01*
X40593910Y-23185420D01*
X40663756Y-23187083D01*
X40721619Y-23226245D01*
X40749123Y-23290473D01*
X40750000Y-23305195D01*
X40750000Y-23869861D01*
X40750000Y-23869862D01*
X40791690Y-23861569D01*
X40791692Y-23861569D01*
X40973659Y-23786197D01*
X40973664Y-23786195D01*
X40973664Y-23786194D01*
X40973671Y-23786192D01*
X40973684Y-23786185D01*
X41137462Y-23676751D01*
X41137466Y-23676748D01*
X41276748Y-23537466D01*
X41276751Y-23537462D01*
X41386185Y-23373684D01*
X41386192Y-23373671D01*
X41461569Y-23191693D01*
X41461572Y-23191681D01*
X41498480Y-23006130D01*
X41499203Y-23003401D01*
X41500000Y-22998493D01*
X41500000Y-22750000D01*
X40924000Y-22750000D01*
X40856961Y-22730315D01*
X40811206Y-22677511D01*
X40800000Y-22626000D01*
X40800000Y-22374000D01*
X40819685Y-22306961D01*
X40872489Y-22261206D01*
X40924000Y-22250000D01*
X41500000Y-22250000D01*
X41500000Y-22001506D01*
X41499909Y-22000768D01*
X41499408Y-21998533D01*
X41461577Y-21808343D01*
X41461576Y-21808342D01*
X41461572Y-21808318D01*
X41461569Y-21808306D01*
X41420653Y-21709524D01*
X41386195Y-21626334D01*
X41386190Y-21626325D01*
X41386185Y-21626315D01*
X41276751Y-21462537D01*
X41276748Y-21462533D01*
X41276743Y-21462527D01*
X41137471Y-21323255D01*
X41137465Y-21323250D01*
X41137464Y-21323249D01*
X40973690Y-21213818D01*
X40973685Y-21213815D01*
X40973684Y-21213814D01*
X40973671Y-21213807D01*
X40973664Y-21213803D01*
X40791692Y-21138429D01*
X40791675Y-21138425D01*
X40750000Y-21130135D01*
X40750000Y-21694804D01*
X40730315Y-21761843D01*
X40677511Y-21807598D01*
X40608353Y-21817542D01*
X40593908Y-21814579D01*
X40539497Y-21800000D01*
X40539496Y-21800000D01*
X40460504Y-21800000D01*
X40460502Y-21800000D01*
X40406092Y-21814579D01*
X40336242Y-21812916D01*
X40278380Y-21773752D01*
X40250877Y-21709524D01*
X40250000Y-21694804D01*
X40250000Y-21130136D01*
X40249999Y-21130135D01*
X40208330Y-21138424D01*
X40208306Y-21138429D01*
X40026334Y-21213803D01*
X40026325Y-21213808D01*
X40026308Y-21213818D01*
X39862534Y-21323249D01*
X39862533Y-21323250D01*
X39862527Y-21323255D01*
X39723255Y-21462527D01*
X39723250Y-21462533D01*
X39723249Y-21462534D01*
X39613818Y-21626308D01*
X39613808Y-21626325D01*
X39613803Y-21626334D01*
X39538430Y-21808304D01*
X39538421Y-21808343D01*
X39500000Y-22001500D01*
X36086897Y-22001500D01*
X36031879Y-21959284D01*
X36030615Y-21958281D01*
X36030286Y-21958062D01*
X36030283Y-21958060D01*
X35820215Y-21836777D01*
X35820200Y-21836770D01*
X35780784Y-21820444D01*
X35780783Y-21820444D01*
X35596104Y-21743947D01*
X35361781Y-21681160D01*
X35121290Y-21649500D01*
X35121289Y-21649500D01*
X35121288Y-21649500D01*
X34878712Y-21649500D01*
X34878711Y-21649500D01*
X34878710Y-21649500D01*
X34638217Y-21681160D01*
X34403894Y-21743947D01*
X34179790Y-21836774D01*
X34179782Y-21836778D01*
X33969706Y-21958067D01*
X33969697Y-21958073D01*
X33777270Y-22105726D01*
X33777255Y-22105740D01*
X33777247Y-22105747D01*
X33605747Y-22277247D01*
X33605740Y-22277255D01*
X33605726Y-22277270D01*
X33458073Y-22469697D01*
X33458067Y-22469706D01*
X33336778Y-22679782D01*
X33336774Y-22679790D01*
X33243947Y-22903894D01*
X33181160Y-23138217D01*
X33149500Y-23378710D01*
X30382827Y-23378710D01*
X30386185Y-23373684D01*
X30386190Y-23373675D01*
X30391832Y-23360053D01*
X30405443Y-23327197D01*
X30410110Y-23315925D01*
X30410113Y-23315921D01*
X30410114Y-23315919D01*
X30410116Y-23315911D01*
X30442323Y-23238156D01*
X30461569Y-23191693D01*
X30461572Y-23191681D01*
X30498480Y-23006130D01*
X30499203Y-23003401D01*
X30500000Y-22998493D01*
X30500000Y-22750000D01*
X29924000Y-22750000D01*
X29856961Y-22730315D01*
X29811206Y-22677511D01*
X29800000Y-22626000D01*
X29800000Y-22374000D01*
X29819685Y-22306961D01*
X29872489Y-22261206D01*
X29924000Y-22250000D01*
X30500000Y-22250000D01*
X30500000Y-22001506D01*
X30499909Y-22000768D01*
X30499408Y-21998533D01*
X30461577Y-21808343D01*
X30461576Y-21808342D01*
X30461572Y-21808318D01*
X30461569Y-21808306D01*
X30420653Y-21709524D01*
X30386195Y-21626334D01*
X30386190Y-21626325D01*
X30386185Y-21626315D01*
X30276751Y-21462537D01*
X30276748Y-21462533D01*
X30276743Y-21462527D01*
X30137471Y-21323255D01*
X30137465Y-21323250D01*
X30137464Y-21323249D01*
X29973690Y-21213818D01*
X29973685Y-21213815D01*
X29973684Y-21213814D01*
X29973671Y-21213807D01*
X29973664Y-21213803D01*
X29791692Y-21138429D01*
X29791675Y-21138425D01*
X29750000Y-21130135D01*
X29750000Y-21694804D01*
X29730315Y-21761843D01*
X29677511Y-21807598D01*
X29608353Y-21817542D01*
X29593908Y-21814579D01*
X29539497Y-21800000D01*
X29539496Y-21800000D01*
X29460504Y-21800000D01*
X29460502Y-21800000D01*
X29406092Y-21814579D01*
X29336242Y-21812916D01*
X29278380Y-21773752D01*
X29250877Y-21709524D01*
X29250000Y-21694804D01*
X29250000Y-21130136D01*
X29249999Y-21130135D01*
X29208330Y-21138424D01*
X29208306Y-21138429D01*
X29026334Y-21213803D01*
X29026325Y-21213808D01*
X29026308Y-21213818D01*
X28862534Y-21323249D01*
X28862533Y-21323250D01*
X28862527Y-21323255D01*
X28723255Y-21462527D01*
X28723250Y-21462533D01*
X28723249Y-21462534D01*
X28613818Y-21626308D01*
X28613808Y-21626325D01*
X28613803Y-21626334D01*
X28538430Y-21808304D01*
X28538421Y-21808343D01*
X28500000Y-22001500D01*
X21859998Y-22001500D01*
X21821572Y-21808318D01*
X21821569Y-21808306D01*
X21780653Y-21709524D01*
X21746195Y-21626334D01*
X21746190Y-21626325D01*
X21746185Y-21626315D01*
X21636751Y-21462537D01*
X21636748Y-21462533D01*
X21636743Y-21462527D01*
X21497471Y-21323255D01*
X21497465Y-21323250D01*
X21497464Y-21323249D01*
X21333690Y-21213818D01*
X21333685Y-21213815D01*
X21333684Y-21213814D01*
X21333671Y-21213807D01*
X21333664Y-21213803D01*
X21151692Y-21138429D01*
X21151675Y-21138425D01*
X21110000Y-21130135D01*
X21110000Y-21694804D01*
X21090315Y-21761843D01*
X21037511Y-21807598D01*
X20968353Y-21817542D01*
X20953908Y-21814579D01*
X20899497Y-21800000D01*
X20899496Y-21800000D01*
X20820504Y-21800000D01*
X20820502Y-21800000D01*
X20766092Y-21814579D01*
X20696242Y-21812916D01*
X20638380Y-21773752D01*
X20610877Y-21709524D01*
X20610000Y-21694804D01*
X20610000Y-21130136D01*
X20609999Y-21130135D01*
X20568330Y-21138424D01*
X20568306Y-21138429D01*
X20386334Y-21213803D01*
X20386325Y-21213808D01*
X20386313Y-21213815D01*
X20308213Y-21266000D01*
X20308212Y-21266001D01*
X20276373Y-21281232D01*
X20263377Y-21285301D01*
X20193519Y-21286547D01*
X20134077Y-21249827D01*
X20105400Y-21194401D01*
X20103571Y-21186340D01*
X20100500Y-21158912D01*
X20100500Y-20642329D01*
X20105523Y-20607393D01*
X20109927Y-20592395D01*
X20119557Y-20577404D01*
X20124567Y-20560324D01*
X20147672Y-20533644D01*
X20149041Y-20532457D01*
X20203920Y-20504977D01*
X20211479Y-20503333D01*
X20237832Y-20500500D01*
X49757670Y-20500500D01*
X49792606Y-20505523D01*
G37*
%TD.AperFunction*%
%TA.AperFunction,Conductor*%
G36*
X42125334Y-32284040D02*
G01*
X42178810Y-32329007D01*
X42199486Y-32395747D01*
X42199500Y-32397585D01*
X42199500Y-32478850D01*
X42231264Y-32638540D01*
X42232936Y-32649469D01*
X42235131Y-32669874D01*
X42222729Y-32738634D01*
X42222725Y-32738641D01*
X42216629Y-32750819D01*
X42193427Y-32782995D01*
X40544288Y-34432135D01*
X40516038Y-34453284D01*
X40506111Y-34458705D01*
X40488680Y-34462497D01*
X40473024Y-34471044D01*
X40455249Y-34469770D01*
X40437838Y-34473559D01*
X40421126Y-34467326D01*
X40403332Y-34466052D01*
X40389068Y-34455371D01*
X40372373Y-34449145D01*
X40361681Y-34434864D01*
X40347404Y-34424173D01*
X40330510Y-34393226D01*
X40330500Y-34393213D01*
X40327813Y-34386007D01*
X40320000Y-34342687D01*
X40320000Y-34246506D01*
X40319909Y-34245768D01*
X40319408Y-34243533D01*
X40281577Y-34053343D01*
X40281576Y-34053342D01*
X40281572Y-34053318D01*
X40281569Y-34053306D01*
X40240653Y-33954524D01*
X40206195Y-33871334D01*
X40206190Y-33871325D01*
X40206185Y-33871315D01*
X40096751Y-33707537D01*
X40096748Y-33707533D01*
X40096743Y-33707527D01*
X39957471Y-33568255D01*
X39957465Y-33568250D01*
X39957464Y-33568249D01*
X39793690Y-33458818D01*
X39793689Y-33458817D01*
X39793684Y-33458814D01*
X39793671Y-33458807D01*
X39793664Y-33458803D01*
X39611692Y-33383429D01*
X39611675Y-33383425D01*
X39570000Y-33375135D01*
X39570000Y-33939804D01*
X39550315Y-34006843D01*
X39497511Y-34052598D01*
X39428353Y-34062542D01*
X39413908Y-34059579D01*
X39359497Y-34045000D01*
X39359496Y-34045000D01*
X39280504Y-34045000D01*
X39280502Y-34045000D01*
X39226092Y-34059579D01*
X39156242Y-34057916D01*
X39098380Y-34018752D01*
X39070877Y-33954524D01*
X39070000Y-33939804D01*
X39070000Y-33375136D01*
X39069999Y-33375135D01*
X39028330Y-33383424D01*
X39028306Y-33383429D01*
X38929951Y-33424169D01*
X38929948Y-33424169D01*
X38929947Y-33424171D01*
X38895751Y-33432897D01*
X38887607Y-33433772D01*
X38880210Y-33434568D01*
X38811458Y-33422163D01*
X38811452Y-33422160D01*
X38811451Y-33422160D01*
X38811449Y-33422158D01*
X38799283Y-33416069D01*
X38767101Y-33392863D01*
X38751556Y-33377317D01*
X38751552Y-33377314D01*
X38751547Y-33377310D01*
X38610199Y-33293718D01*
X38610196Y-33293717D01*
X38610165Y-33293707D01*
X38513148Y-33265521D01*
X38454262Y-33227915D01*
X38425056Y-33164443D01*
X38425965Y-33123077D01*
X38463208Y-32928998D01*
X38495173Y-32866872D01*
X38555653Y-32831888D01*
X38565517Y-32829906D01*
X42056037Y-32275122D01*
X42125334Y-32284040D01*
G37*
%TD.AperFunction*%
%TD*%
%TA.AperFunction,Conductor*%
%TO.N,/VBUS*%
G36*
X47326187Y-28045303D02*
G01*
X47344199Y-28068812D01*
X47352231Y-28082393D01*
X47356581Y-28098293D01*
X47364477Y-28110580D01*
X47369500Y-28145515D01*
X47369500Y-28333236D01*
X47350652Y-28398956D01*
X45629925Y-31152119D01*
X45577701Y-31198535D01*
X45544237Y-31208862D01*
X43096145Y-31597963D01*
X43076681Y-31599500D01*
X42921155Y-31599500D01*
X42766505Y-31630261D01*
X42766502Y-31630263D01*
X42701311Y-31657265D01*
X42673324Y-31665166D01*
X38050000Y-32399999D01*
X38049999Y-32400000D01*
X37898142Y-33191343D01*
X37866176Y-33253471D01*
X37810961Y-33287050D01*
X37789603Y-33293255D01*
X37648137Y-33376917D01*
X37648129Y-33376923D01*
X37531923Y-33493129D01*
X37531917Y-33493137D01*
X37524199Y-33506188D01*
X37473129Y-33553870D01*
X37404387Y-33566373D01*
X37339798Y-33539726D01*
X37319093Y-33518552D01*
X37272911Y-33458368D01*
X37235451Y-33409549D01*
X37115233Y-33317302D01*
X37115229Y-33317300D01*
X36999998Y-33269570D01*
X36975236Y-33259313D01*
X36960698Y-33257399D01*
X36862727Y-33244500D01*
X36862720Y-33244500D01*
X36637280Y-33244500D01*
X36637272Y-33244500D01*
X36550393Y-33255938D01*
X36524764Y-33259313D01*
X36524762Y-33259313D01*
X36516708Y-33260374D01*
X36516316Y-33257399D01*
X36483684Y-33257399D01*
X36483292Y-33260374D01*
X36475237Y-33259313D01*
X36475236Y-33259313D01*
X36446271Y-33255499D01*
X36362727Y-33244500D01*
X36362720Y-33244500D01*
X36137280Y-33244500D01*
X36137274Y-33244500D01*
X36137269Y-33244501D01*
X36033040Y-33258223D01*
X35964005Y-33247457D01*
X35911749Y-33201077D01*
X35895238Y-33159476D01*
X35875502Y-33060261D01*
X35875501Y-33060260D01*
X35875501Y-33060256D01*
X35826465Y-32941873D01*
X35755277Y-32835331D01*
X35755275Y-32835329D01*
X35755273Y-32835326D01*
X35697130Y-32777183D01*
X35663645Y-32715860D01*
X35668629Y-32646168D01*
X35681705Y-32620617D01*
X35709394Y-32579179D01*
X35769737Y-32433497D01*
X35800500Y-32278842D01*
X35800500Y-32121158D01*
X35800500Y-32121155D01*
X35800499Y-32121153D01*
X35769737Y-31966503D01*
X35737929Y-31889711D01*
X35709397Y-31820827D01*
X35709390Y-31820814D01*
X35621789Y-31689711D01*
X35621786Y-31689707D01*
X35510292Y-31578213D01*
X35510288Y-31578210D01*
X35379185Y-31490609D01*
X35379172Y-31490602D01*
X35233501Y-31430264D01*
X35233489Y-31430261D01*
X35078845Y-31399500D01*
X35078842Y-31399500D01*
X34921158Y-31399500D01*
X34921155Y-31399500D01*
X34766510Y-31430261D01*
X34766498Y-31430264D01*
X34620828Y-31490602D01*
X34620814Y-31490610D01*
X34551806Y-31536718D01*
X34549233Y-31537894D01*
X34548219Y-31539027D01*
X34537653Y-31543191D01*
X34515875Y-31553154D01*
X34511516Y-31554355D01*
X34410256Y-31574499D01*
X34361221Y-31594810D01*
X34354133Y-31597745D01*
X34354125Y-31597748D01*
X34291881Y-31623530D01*
X34291863Y-31623540D01*
X34185332Y-31694721D01*
X34185325Y-31694727D01*
X33244726Y-32635326D01*
X33173534Y-32741874D01*
X33124499Y-32860255D01*
X33124497Y-32860261D01*
X33099500Y-32985928D01*
X33099500Y-33145502D01*
X33079815Y-33212541D01*
X33027011Y-33258296D01*
X33022953Y-33260063D01*
X32884770Y-33317300D01*
X32764548Y-33409550D01*
X32680906Y-33518553D01*
X32624478Y-33559755D01*
X32554732Y-33563909D01*
X32493812Y-33529696D01*
X32475798Y-33506184D01*
X32468083Y-33493138D01*
X32468076Y-33493129D01*
X32351870Y-33376923D01*
X32351862Y-33376917D01*
X32210396Y-33293255D01*
X32210393Y-33293253D01*
X32076958Y-33254487D01*
X32018072Y-33216881D01*
X31988866Y-33153408D01*
X31987587Y-33132521D01*
X31993933Y-32860255D01*
X31999038Y-32641262D01*
X32020279Y-32574701D01*
X32025488Y-32567559D01*
X34171958Y-29835688D01*
X34228853Y-29795137D01*
X34244447Y-29790848D01*
X41000000Y-28400000D01*
X41061179Y-28319956D01*
X41117524Y-28278650D01*
X41187262Y-28274362D01*
X41208947Y-28281460D01*
X41209592Y-28281738D01*
X41209602Y-28281744D01*
X41275475Y-28300882D01*
X41367426Y-28327597D01*
X41367429Y-28327597D01*
X41367431Y-28327598D01*
X41404306Y-28330500D01*
X41404314Y-28330500D01*
X41835686Y-28330500D01*
X41835694Y-28330500D01*
X41872569Y-28327598D01*
X41872571Y-28327597D01*
X41872573Y-28327597D01*
X41948874Y-28305429D01*
X42030398Y-28281744D01*
X42171865Y-28198081D01*
X42204496Y-28165450D01*
X42257819Y-28112128D01*
X42319142Y-28078643D01*
X42388834Y-28083627D01*
X42444767Y-28125499D01*
X42469184Y-28190963D01*
X42469500Y-28199809D01*
X42469500Y-28574684D01*
X42460061Y-28622136D01*
X42400264Y-28766498D01*
X42400261Y-28766510D01*
X42369500Y-28921153D01*
X42369500Y-29078846D01*
X42400261Y-29233489D01*
X42400264Y-29233501D01*
X42460602Y-29379172D01*
X42460609Y-29379185D01*
X42548210Y-29510288D01*
X42548213Y-29510292D01*
X42659707Y-29621786D01*
X42659711Y-29621789D01*
X42790814Y-29709390D01*
X42790827Y-29709397D01*
X42936498Y-29769735D01*
X42936503Y-29769737D01*
X43064197Y-29795137D01*
X43091153Y-29800499D01*
X43091156Y-29800500D01*
X43091158Y-29800500D01*
X43248844Y-29800500D01*
X43248845Y-29800499D01*
X43403497Y-29769737D01*
X43549179Y-29709394D01*
X43680289Y-29621789D01*
X43791789Y-29510289D01*
X43879394Y-29379179D01*
X43939737Y-29233497D01*
X43970500Y-29078842D01*
X43970500Y-28921158D01*
X43970500Y-28921155D01*
X43970499Y-28921153D01*
X43948440Y-28810256D01*
X43939737Y-28766503D01*
X43930693Y-28744669D01*
X43879397Y-28620827D01*
X43879390Y-28620814D01*
X43811230Y-28518806D01*
X43790352Y-28452129D01*
X43808836Y-28384748D01*
X43860815Y-28338058D01*
X43929785Y-28326882D01*
X43930258Y-28326942D01*
X43957280Y-28330500D01*
X43957287Y-28330500D01*
X44182713Y-28330500D01*
X44182720Y-28330500D01*
X44295236Y-28315687D01*
X44295236Y-28315686D01*
X44303295Y-28314626D01*
X44303538Y-28316474D01*
X44333535Y-28314166D01*
X44343818Y-28315295D01*
X44344764Y-28315687D01*
X44457280Y-28330500D01*
X44482287Y-28330500D01*
X44489035Y-28331241D01*
X44515272Y-28342178D01*
X44542539Y-28350185D01*
X44547097Y-28355445D01*
X44553525Y-28358125D01*
X44569685Y-28381513D01*
X44588294Y-28402989D01*
X44590026Y-28410952D01*
X44593243Y-28415608D01*
X44593643Y-28427578D01*
X44599500Y-28454500D01*
X44599500Y-28478846D01*
X44630261Y-28633489D01*
X44630264Y-28633501D01*
X44690602Y-28779172D01*
X44690609Y-28779185D01*
X44778210Y-28910288D01*
X44778213Y-28910292D01*
X44889707Y-29021786D01*
X44889711Y-29021789D01*
X45020814Y-29109390D01*
X45020827Y-29109397D01*
X45166498Y-29169735D01*
X45166503Y-29169737D01*
X45321153Y-29200499D01*
X45321156Y-29200500D01*
X45321158Y-29200500D01*
X45478844Y-29200500D01*
X45478845Y-29200499D01*
X45633497Y-29169737D01*
X45779179Y-29109394D01*
X45836044Y-29071397D01*
X45902721Y-29050520D01*
X45904935Y-29050500D01*
X46064071Y-29050500D01*
X46148615Y-29033682D01*
X46189744Y-29025501D01*
X46308127Y-28976465D01*
X46339502Y-28955501D01*
X46414669Y-28905277D01*
X46575277Y-28744669D01*
X46646465Y-28638127D01*
X46695501Y-28519744D01*
X46717850Y-28407390D01*
X46750235Y-28345480D01*
X46792015Y-28317021D01*
X46820001Y-28305429D01*
X46935228Y-28257700D01*
X46935229Y-28257700D01*
X46935229Y-28257699D01*
X46935233Y-28257698D01*
X47055451Y-28165451D01*
X47139094Y-28056445D01*
X47195520Y-28015245D01*
X47265266Y-28011090D01*
X47326187Y-28045303D01*
G37*
%TD.AperFunction*%
%TD*%
M02*
