M48
; DRILL file KiCad 10.0.3 date 2026-06-12T12:09:39
; FORMAT={-:-/ absolute / metric / decimal}
; #@! TF.CreationDate,2026-06-12T12:09:39+02:00
; #@! TF.GenerationSoftware,Kicad,Pcbnew,10.0.3
; #@! TF.FileFunction,Plated,1,2,PTH
FMAT,2
METRIC
; #@! TA.AperFunction,Plated,PTH,ViaDrill
T1C0.300
; #@! TA.AperFunction,Plated,PTH,ComponentDrill
T2C0.600
%
G90
G05
T1
X35.0Y-32.2
X41.0Y-33.4
X42.4Y-35.4
X43.0Y-32.4
X43.17Y-29.0
X45.4Y-28.4
T2
G00X20.86Y-22.9
M15
G01X20.86Y-22.1
M16
G05
G00X20.86Y-27.23
M15
G01X20.86Y-26.13
M16
G05
G00X29.5Y-22.9
M15
G01X29.5Y-22.1
M16
G05
G00X29.5Y-27.23
M15
G01X29.5Y-26.13
M16
G05
G00X30.68Y-34.345
M15
G01X30.68Y-35.445
M16
G05
G00X30.68Y-38.675
M15
G01X30.68Y-39.475
M16
G05
G00X39.32Y-34.345
M15
G01X39.32Y-35.445
M16
G05
G00X39.32Y-38.675
M15
G01X39.32Y-39.475
M16
G05
G00X40.5Y-22.9
M15
G01X40.5Y-22.1
M16
G05
G00X40.5Y-27.23
M15
G01X40.5Y-26.13
M16
G05
G00X49.14Y-22.9
M15
G01X49.14Y-22.1
M16
G05
G00X49.14Y-27.23
M15
G01X49.14Y-26.13
M16
G05
M30
