%TF.GenerationSoftware,KiCad,Pcbnew,10.0.3*%
%TF.CreationDate,2026-06-12T12:09:36+02:00*%
%TF.ProjectId,usb-c-splitter,7573622d-632d-4737-906c-69747465722e,rev?*%
%TF.SameCoordinates,Original*%
%TF.FileFunction,Legend,Top*%
%TF.FilePolarity,Positive*%
%FSLAX46Y46*%
G04 Gerber Fmt 4.6, Leading zero omitted, Abs format (unit mm)*
G04 Created by KiCad (PCBNEW 10.0.3) date 2026-06-12 12:09:36*
%MOMM*%
%LPD*%
G01*
G04 APERTURE LIST*
%ADD10C,0.150000*%
%ADD11C,0.120000*%
G04 APERTURE END LIST*
D10*
X26038095Y-38454819D02*
X26038095Y-37454819D01*
X26038095Y-37931009D02*
X26609523Y-37931009D01*
X26609523Y-38454819D02*
X26609523Y-37454819D01*
X26990476Y-37454819D02*
X27609523Y-37454819D01*
X27609523Y-37454819D02*
X27276190Y-37835771D01*
X27276190Y-37835771D02*
X27419047Y-37835771D01*
X27419047Y-37835771D02*
X27514285Y-37883390D01*
X27514285Y-37883390D02*
X27561904Y-37931009D01*
X27561904Y-37931009D02*
X27609523Y-38026247D01*
X27609523Y-38026247D02*
X27609523Y-38264342D01*
X27609523Y-38264342D02*
X27561904Y-38359580D01*
X27561904Y-38359580D02*
X27514285Y-38407200D01*
X27514285Y-38407200D02*
X27419047Y-38454819D01*
X27419047Y-38454819D02*
X27133333Y-38454819D01*
X27133333Y-38454819D02*
X27038095Y-38407200D01*
X27038095Y-38407200D02*
X26990476Y-38359580D01*
X31690476Y-32859580D02*
X31642857Y-32907200D01*
X31642857Y-32907200D02*
X31500000Y-32954819D01*
X31500000Y-32954819D02*
X31404762Y-32954819D01*
X31404762Y-32954819D02*
X31261905Y-32907200D01*
X31261905Y-32907200D02*
X31166667Y-32811961D01*
X31166667Y-32811961D02*
X31119048Y-32716723D01*
X31119048Y-32716723D02*
X31071429Y-32526247D01*
X31071429Y-32526247D02*
X31071429Y-32383390D01*
X31071429Y-32383390D02*
X31119048Y-32192914D01*
X31119048Y-32192914D02*
X31166667Y-32097676D01*
X31166667Y-32097676D02*
X31261905Y-32002438D01*
X31261905Y-32002438D02*
X31404762Y-31954819D01*
X31404762Y-31954819D02*
X31500000Y-31954819D01*
X31500000Y-31954819D02*
X31642857Y-32002438D01*
X31642857Y-32002438D02*
X31690476Y-32050057D01*
X32261905Y-32954819D02*
X32166667Y-32907200D01*
X32166667Y-32907200D02*
X32119048Y-32859580D01*
X32119048Y-32859580D02*
X32071429Y-32764342D01*
X32071429Y-32764342D02*
X32071429Y-32478628D01*
X32071429Y-32478628D02*
X32119048Y-32383390D01*
X32119048Y-32383390D02*
X32166667Y-32335771D01*
X32166667Y-32335771D02*
X32261905Y-32288152D01*
X32261905Y-32288152D02*
X32404762Y-32288152D01*
X32404762Y-32288152D02*
X32500000Y-32335771D01*
X32500000Y-32335771D02*
X32547619Y-32383390D01*
X32547619Y-32383390D02*
X32595238Y-32478628D01*
X32595238Y-32478628D02*
X32595238Y-32764342D01*
X32595238Y-32764342D02*
X32547619Y-32859580D01*
X32547619Y-32859580D02*
X32500000Y-32907200D01*
X32500000Y-32907200D02*
X32404762Y-32954819D01*
X32404762Y-32954819D02*
X32261905Y-32954819D01*
X33023810Y-32954819D02*
X33023810Y-32288152D01*
X33023810Y-32383390D02*
X33071429Y-32335771D01*
X33071429Y-32335771D02*
X33166667Y-32288152D01*
X33166667Y-32288152D02*
X33309524Y-32288152D01*
X33309524Y-32288152D02*
X33404762Y-32335771D01*
X33404762Y-32335771D02*
X33452381Y-32431009D01*
X33452381Y-32431009D02*
X33452381Y-32954819D01*
X33452381Y-32431009D02*
X33500000Y-32335771D01*
X33500000Y-32335771D02*
X33595238Y-32288152D01*
X33595238Y-32288152D02*
X33738095Y-32288152D01*
X33738095Y-32288152D02*
X33833334Y-32335771D01*
X33833334Y-32335771D02*
X33880953Y-32431009D01*
X33880953Y-32431009D02*
X33880953Y-32954819D01*
X34357143Y-32954819D02*
X34357143Y-31954819D01*
X34357143Y-32335771D02*
X34452381Y-32288152D01*
X34452381Y-32288152D02*
X34642857Y-32288152D01*
X34642857Y-32288152D02*
X34738095Y-32335771D01*
X34738095Y-32335771D02*
X34785714Y-32383390D01*
X34785714Y-32383390D02*
X34833333Y-32478628D01*
X34833333Y-32478628D02*
X34833333Y-32764342D01*
X34833333Y-32764342D02*
X34785714Y-32859580D01*
X34785714Y-32859580D02*
X34738095Y-32907200D01*
X34738095Y-32907200D02*
X34642857Y-32954819D01*
X34642857Y-32954819D02*
X34452381Y-32954819D01*
X34452381Y-32954819D02*
X34357143Y-32907200D01*
X35261905Y-32954819D02*
X35261905Y-32288152D01*
X35261905Y-31954819D02*
X35214286Y-32002438D01*
X35214286Y-32002438D02*
X35261905Y-32050057D01*
X35261905Y-32050057D02*
X35309524Y-32002438D01*
X35309524Y-32002438D02*
X35261905Y-31954819D01*
X35261905Y-31954819D02*
X35261905Y-32050057D01*
X35738095Y-32288152D02*
X35738095Y-32954819D01*
X35738095Y-32383390D02*
X35785714Y-32335771D01*
X35785714Y-32335771D02*
X35880952Y-32288152D01*
X35880952Y-32288152D02*
X36023809Y-32288152D01*
X36023809Y-32288152D02*
X36119047Y-32335771D01*
X36119047Y-32335771D02*
X36166666Y-32431009D01*
X36166666Y-32431009D02*
X36166666Y-32954819D01*
X37023809Y-32907200D02*
X36928571Y-32954819D01*
X36928571Y-32954819D02*
X36738095Y-32954819D01*
X36738095Y-32954819D02*
X36642857Y-32907200D01*
X36642857Y-32907200D02*
X36595238Y-32811961D01*
X36595238Y-32811961D02*
X36595238Y-32431009D01*
X36595238Y-32431009D02*
X36642857Y-32335771D01*
X36642857Y-32335771D02*
X36738095Y-32288152D01*
X36738095Y-32288152D02*
X36928571Y-32288152D01*
X36928571Y-32288152D02*
X37023809Y-32335771D01*
X37023809Y-32335771D02*
X37071428Y-32431009D01*
X37071428Y-32431009D02*
X37071428Y-32526247D01*
X37071428Y-32526247D02*
X36595238Y-32621485D01*
X37928571Y-32954819D02*
X37928571Y-31954819D01*
X37928571Y-32907200D02*
X37833333Y-32954819D01*
X37833333Y-32954819D02*
X37642857Y-32954819D01*
X37642857Y-32954819D02*
X37547619Y-32907200D01*
X37547619Y-32907200D02*
X37500000Y-32859580D01*
X37500000Y-32859580D02*
X37452381Y-32764342D01*
X37452381Y-32764342D02*
X37452381Y-32478628D01*
X37452381Y-32478628D02*
X37500000Y-32383390D01*
X37500000Y-32383390D02*
X37547619Y-32335771D01*
X37547619Y-32335771D02*
X37642857Y-32288152D01*
X37642857Y-32288152D02*
X37833333Y-32288152D01*
X37833333Y-32288152D02*
X37928571Y-32335771D01*
X38928571Y-32954819D02*
X38357143Y-32954819D01*
X38642857Y-32954819D02*
X38642857Y-31954819D01*
X38642857Y-31954819D02*
X38547619Y-32097676D01*
X38547619Y-32097676D02*
X38452381Y-32192914D01*
X38452381Y-32192914D02*
X38357143Y-32240533D01*
X28633333Y-30204819D02*
X28300000Y-29728628D01*
X28061905Y-30204819D02*
X28061905Y-29204819D01*
X28061905Y-29204819D02*
X28442857Y-29204819D01*
X28442857Y-29204819D02*
X28538095Y-29252438D01*
X28538095Y-29252438D02*
X28585714Y-29300057D01*
X28585714Y-29300057D02*
X28633333Y-29395295D01*
X28633333Y-29395295D02*
X28633333Y-29538152D01*
X28633333Y-29538152D02*
X28585714Y-29633390D01*
X28585714Y-29633390D02*
X28538095Y-29681009D01*
X28538095Y-29681009D02*
X28442857Y-29728628D01*
X28442857Y-29728628D02*
X28061905Y-29728628D01*
X29014286Y-29300057D02*
X29061905Y-29252438D01*
X29061905Y-29252438D02*
X29157143Y-29204819D01*
X29157143Y-29204819D02*
X29395238Y-29204819D01*
X29395238Y-29204819D02*
X29490476Y-29252438D01*
X29490476Y-29252438D02*
X29538095Y-29300057D01*
X29538095Y-29300057D02*
X29585714Y-29395295D01*
X29585714Y-29395295D02*
X29585714Y-29490533D01*
X29585714Y-29490533D02*
X29538095Y-29633390D01*
X29538095Y-29633390D02*
X28966667Y-30204819D01*
X28966667Y-30204819D02*
X29585714Y-30204819D01*
X42438095Y-38544819D02*
X42438095Y-37544819D01*
X42438095Y-38021009D02*
X43009523Y-38021009D01*
X43009523Y-38544819D02*
X43009523Y-37544819D01*
X43438095Y-37640057D02*
X43485714Y-37592438D01*
X43485714Y-37592438D02*
X43580952Y-37544819D01*
X43580952Y-37544819D02*
X43819047Y-37544819D01*
X43819047Y-37544819D02*
X43914285Y-37592438D01*
X43914285Y-37592438D02*
X43961904Y-37640057D01*
X43961904Y-37640057D02*
X44009523Y-37735295D01*
X44009523Y-37735295D02*
X44009523Y-37830533D01*
X44009523Y-37830533D02*
X43961904Y-37973390D01*
X43961904Y-37973390D02*
X43390476Y-38544819D01*
X43390476Y-38544819D02*
X44009523Y-38544819D01*
X23251428Y-29529819D02*
X23251428Y-28529819D01*
X23251428Y-28529819D02*
X23489523Y-28529819D01*
X23489523Y-28529819D02*
X23632380Y-28577438D01*
X23632380Y-28577438D02*
X23727618Y-28672676D01*
X23727618Y-28672676D02*
X23775237Y-28767914D01*
X23775237Y-28767914D02*
X23822856Y-28958390D01*
X23822856Y-28958390D02*
X23822856Y-29101247D01*
X23822856Y-29101247D02*
X23775237Y-29291723D01*
X23775237Y-29291723D02*
X23727618Y-29386961D01*
X23727618Y-29386961D02*
X23632380Y-29482200D01*
X23632380Y-29482200D02*
X23489523Y-29529819D01*
X23489523Y-29529819D02*
X23251428Y-29529819D01*
X24679999Y-29529819D02*
X24679999Y-29006009D01*
X24679999Y-29006009D02*
X24632380Y-28910771D01*
X24632380Y-28910771D02*
X24537142Y-28863152D01*
X24537142Y-28863152D02*
X24346666Y-28863152D01*
X24346666Y-28863152D02*
X24251428Y-28910771D01*
X24679999Y-29482200D02*
X24584761Y-29529819D01*
X24584761Y-29529819D02*
X24346666Y-29529819D01*
X24346666Y-29529819D02*
X24251428Y-29482200D01*
X24251428Y-29482200D02*
X24203809Y-29386961D01*
X24203809Y-29386961D02*
X24203809Y-29291723D01*
X24203809Y-29291723D02*
X24251428Y-29196485D01*
X24251428Y-29196485D02*
X24346666Y-29148866D01*
X24346666Y-29148866D02*
X24584761Y-29148866D01*
X24584761Y-29148866D02*
X24679999Y-29101247D01*
X25013333Y-28863152D02*
X25394285Y-28863152D01*
X25156190Y-28529819D02*
X25156190Y-29386961D01*
X25156190Y-29386961D02*
X25203809Y-29482200D01*
X25203809Y-29482200D02*
X25299047Y-29529819D01*
X25299047Y-29529819D02*
X25394285Y-29529819D01*
X26156190Y-29529819D02*
X26156190Y-29006009D01*
X26156190Y-29006009D02*
X26108571Y-28910771D01*
X26108571Y-28910771D02*
X26013333Y-28863152D01*
X26013333Y-28863152D02*
X25822857Y-28863152D01*
X25822857Y-28863152D02*
X25727619Y-28910771D01*
X26156190Y-29482200D02*
X26060952Y-29529819D01*
X26060952Y-29529819D02*
X25822857Y-29529819D01*
X25822857Y-29529819D02*
X25727619Y-29482200D01*
X25727619Y-29482200D02*
X25680000Y-29386961D01*
X25680000Y-29386961D02*
X25680000Y-29291723D01*
X25680000Y-29291723D02*
X25727619Y-29196485D01*
X25727619Y-29196485D02*
X25822857Y-29148866D01*
X25822857Y-29148866D02*
X26060952Y-29148866D01*
X26060952Y-29148866D02*
X26156190Y-29101247D01*
X27156190Y-29529819D02*
X26584762Y-29529819D01*
X26870476Y-29529819D02*
X26870476Y-28529819D01*
X26870476Y-28529819D02*
X26775238Y-28672676D01*
X26775238Y-28672676D02*
X26680000Y-28767914D01*
X26680000Y-28767914D02*
X26584762Y-28815533D01*
X34238095Y-27144819D02*
X34238095Y-26144819D01*
X34238095Y-26621009D02*
X34809523Y-26621009D01*
X34809523Y-27144819D02*
X34809523Y-26144819D01*
X35809523Y-27144819D02*
X35238095Y-27144819D01*
X35523809Y-27144819D02*
X35523809Y-26144819D01*
X35523809Y-26144819D02*
X35428571Y-26287676D01*
X35428571Y-26287676D02*
X35333333Y-26382914D01*
X35333333Y-26382914D02*
X35238095Y-26430533D01*
X21833333Y-33604819D02*
X21500000Y-33128628D01*
X21261905Y-33604819D02*
X21261905Y-32604819D01*
X21261905Y-32604819D02*
X21642857Y-32604819D01*
X21642857Y-32604819D02*
X21738095Y-32652438D01*
X21738095Y-32652438D02*
X21785714Y-32700057D01*
X21785714Y-32700057D02*
X21833333Y-32795295D01*
X21833333Y-32795295D02*
X21833333Y-32938152D01*
X21833333Y-32938152D02*
X21785714Y-33033390D01*
X21785714Y-33033390D02*
X21738095Y-33081009D01*
X21738095Y-33081009D02*
X21642857Y-33128628D01*
X21642857Y-33128628D02*
X21261905Y-33128628D01*
X22785714Y-33604819D02*
X22214286Y-33604819D01*
X22500000Y-33604819D02*
X22500000Y-32604819D01*
X22500000Y-32604819D02*
X22404762Y-32747676D01*
X22404762Y-32747676D02*
X22309524Y-32842914D01*
X22309524Y-32842914D02*
X22214286Y-32890533D01*
X42367619Y-29529819D02*
X42367619Y-28529819D01*
X42367619Y-28529819D02*
X42748571Y-28529819D01*
X42748571Y-28529819D02*
X42843809Y-28577438D01*
X42843809Y-28577438D02*
X42891428Y-28625057D01*
X42891428Y-28625057D02*
X42939047Y-28720295D01*
X42939047Y-28720295D02*
X42939047Y-28863152D01*
X42939047Y-28863152D02*
X42891428Y-28958390D01*
X42891428Y-28958390D02*
X42843809Y-29006009D01*
X42843809Y-29006009D02*
X42748571Y-29053628D01*
X42748571Y-29053628D02*
X42367619Y-29053628D01*
X43510476Y-29529819D02*
X43415238Y-29482200D01*
X43415238Y-29482200D02*
X43367619Y-29434580D01*
X43367619Y-29434580D02*
X43320000Y-29339342D01*
X43320000Y-29339342D02*
X43320000Y-29053628D01*
X43320000Y-29053628D02*
X43367619Y-28958390D01*
X43367619Y-28958390D02*
X43415238Y-28910771D01*
X43415238Y-28910771D02*
X43510476Y-28863152D01*
X43510476Y-28863152D02*
X43653333Y-28863152D01*
X43653333Y-28863152D02*
X43748571Y-28910771D01*
X43748571Y-28910771D02*
X43796190Y-28958390D01*
X43796190Y-28958390D02*
X43843809Y-29053628D01*
X43843809Y-29053628D02*
X43843809Y-29339342D01*
X43843809Y-29339342D02*
X43796190Y-29434580D01*
X43796190Y-29434580D02*
X43748571Y-29482200D01*
X43748571Y-29482200D02*
X43653333Y-29529819D01*
X43653333Y-29529819D02*
X43510476Y-29529819D01*
X44177143Y-28863152D02*
X44367619Y-29529819D01*
X44367619Y-29529819D02*
X44558095Y-29053628D01*
X44558095Y-29053628D02*
X44748571Y-29529819D01*
X44748571Y-29529819D02*
X44939047Y-28863152D01*
X45700952Y-29482200D02*
X45605714Y-29529819D01*
X45605714Y-29529819D02*
X45415238Y-29529819D01*
X45415238Y-29529819D02*
X45320000Y-29482200D01*
X45320000Y-29482200D02*
X45272381Y-29386961D01*
X45272381Y-29386961D02*
X45272381Y-29006009D01*
X45272381Y-29006009D02*
X45320000Y-28910771D01*
X45320000Y-28910771D02*
X45415238Y-28863152D01*
X45415238Y-28863152D02*
X45605714Y-28863152D01*
X45605714Y-28863152D02*
X45700952Y-28910771D01*
X45700952Y-28910771D02*
X45748571Y-29006009D01*
X45748571Y-29006009D02*
X45748571Y-29101247D01*
X45748571Y-29101247D02*
X45272381Y-29196485D01*
X46177143Y-29529819D02*
X46177143Y-28863152D01*
X46177143Y-29053628D02*
X46224762Y-28958390D01*
X46224762Y-28958390D02*
X46272381Y-28910771D01*
X46272381Y-28910771D02*
X46367619Y-28863152D01*
X46367619Y-28863152D02*
X46462857Y-28863152D01*
X47320000Y-29529819D02*
X46748572Y-29529819D01*
X47034286Y-29529819D02*
X47034286Y-28529819D01*
X47034286Y-28529819D02*
X46939048Y-28672676D01*
X46939048Y-28672676D02*
X46843810Y-28767914D01*
X46843810Y-28767914D02*
X46748572Y-28815533D01*
%TO.C,Combined1*%
D11*
X30330000Y-37900000D02*
X30330000Y-36200000D01*
X39670000Y-37900000D02*
X39670000Y-36200000D01*
%TO.C,R2*%
X28572936Y-30665000D02*
X29027064Y-30665000D01*
X28572936Y-32135000D02*
X29027064Y-32135000D01*
%TO.C,Data1*%
X20510000Y-23675000D02*
X20510000Y-25375000D01*
X29850000Y-23675000D02*
X29850000Y-25375000D01*
%TO.C,R1*%
X22227064Y-30765000D02*
X21772936Y-30765000D01*
X22227064Y-32235000D02*
X21772936Y-32235000D01*
%TO.C,Power1*%
X40150000Y-23675000D02*
X40150000Y-25375000D01*
X49490000Y-23675000D02*
X49490000Y-25375000D01*
%TD*%
M02*
